<svg width="243" height="536" viewBox="0 0 243 536" fill="none" xmlns="http://www.w3.org/2000/svg">
<path d="M-36.4973 514.003C22.4178 503.585 90.63 492.834 138.6 454.082C177.584 422.761 203.646 376.731 215.061 328.409C226.417 279.651 223.341 228.643 206.208 181.603C189.076 134.563 158.627 93.5241 118.574 63.49C73.7031 29.3146 19.3162 9.93621 -37.0555 8.03819C-39.7821 8.02701 -39.5196 11.9942 -36.8866 12.1909C60.2833 19.9021 153.691 76.0593 194.033 167.012C233.73 256.506 217.082 371.921 144.235 439.945C95.2452 485.696 24.3783 493.988 -38.3927 507.736C-38.7283 507.815 -39.0519 507.939 -39.3548 508.104C-38.8223 489.102 -38.4655 470.078 -38.2841 451.033C47.235 443.699 146.169 414.173 180.427 326.501C211.743 245.757 170.407 155.451 104.208 106.191C62.8132 75.4385 12.4755 56.9815 -38.3097 49.3986C-38.6588 36.3213 -39.0391 23.2749 -39.6671 10.1964C-39.6893 9.59641 -39.9489 9.02986 -40.3888 8.62129C-40.8288 8.21272 -41.4131 7.99566 -42.0131 8.01785C-42.6131 8.04005 -43.1796 8.29965 -43.5882 8.7396C-43.9968 9.17955 -44.2138 9.76376 -44.1916 10.3638C-46.5672 60.7054 -46.5267 111.274 -46.1453 161.813C-43.4263 162.672 -40.7699 163.719 -38.1949 164.944C-38.0771 165.009 -37.9527 165.062 -37.8238 165.101L-37.8179 163.675C-12.2405 167.715 12.8377 172.621 36.277 184.244C59.7163 195.866 88.0794 215.752 88.0227 244.692C87.9015 274.22 64.7603 295.691 38.3552 304.569C13.0361 313.079 -12.3292 310.186 -38.3271 310.451L-38.3223 309.274C-40.0927 309.729 -41.9345 309.838 -43.746 309.593C-44.3967 309.59 -45.0157 309.432 -45.6352 309.368L-45.8435 360.152C-46.4516 360.803 -46.7915 361.659 -46.7952 362.55C-46.7988 363.44 -46.466 364.3 -45.8632 364.955C-46.0599 412.889 -46.0086 460.824 -44.6247 508.671C-44.6144 509.13 -44.4799 509.577 -44.2356 509.966C-43.9912 510.355 -43.6462 510.67 -43.2371 510.878C-42.8279 511.086 -42.3701 511.18 -41.9121 511.149C-41.454 511.118 -41.013 510.963 -40.6358 510.701C-40.5967 511.196 -40.4565 511.678 -40.2237 512.116C-39.9909 512.554 -39.6706 512.94 -39.2827 513.25C-38.8947 513.559 -38.4473 513.786 -37.9681 513.915C-37.4891 514.045 -36.9884 514.075 -36.4973 514.003ZM-38.321 316.525C11.2332 322.026 89.7305 311.782 93.4299 248.401C95.0608 220.955 74.4447 200.947 52.9034 187.379C25.4923 170.71 -5.74203 161.364 -37.8038 160.236C-37.7498 147.078 -37.6958 133.899 -37.6416 120.699C0.665573 126.031 36.4109 136.496 68.824 158.597C100.156 179.889 131.939 211.965 127.898 252.912C119.975 333.72 28.3353 352.71 -38.1526 358.573L-38.321 316.525ZM-38.0865 365.111C1.99147 361.774 43.7819 356.43 78.6356 334.976C107.121 317.462 130.299 287.098 133.475 253.089C137.17 213.381 109.32 181.724 79.4172 159.539C46.2088 134.925 4.04538 117.895 -37.625 116.64C-37.5768 104.897 -37.5287 93.1844 -37.7903 81.4398C9.34042 96.1034 57.4625 110.802 96.8731 141.732C129.798 167.585 155.729 206.207 158.901 248.763C162.485 296.588 133.097 337.554 94.51 362.773C54.4933 388.947 7.60944 397.182 -38.046 408.088C-38.0284 393.731 -38.0418 379.406 -38.0865 365.111ZM-38.0718 414.378C-37.6508 414.442 -37.2228 414.443 -36.8014 414.383C35.2308 401.51 122.71 377.204 155.02 303.622C183.607 238.515 144.574 168.452 90.6594 130.676C52.533 103.934 6.95373 88.75 -37.8664 77.3184C-37.9579 69.4064 -38.0907 61.5046 -38.2649 53.6129C43.9044 69.7526 127.377 108.114 165.691 187.222C183.358 223.734 189.937 266.738 180.013 306.42C169.618 347.867 140.386 381.243 104.6 403.406C61.7926 429.939 11.2774 439.648 -38.1002 443.969L-38.0718 414.378Z" fill="#8AC926" fill-opacity="0.16"/>
</svg>
