<svg width="375" height="504" viewBox="0 0 375 504" fill="none" xmlns="http://www.w3.org/2000/svg">
<mask id="mask0_178_1441" style="mask-type:alpha" maskUnits="userSpaceOnUse" x="-119" y="-185" width="710" height="430">
<path d="M-51.5786 32.4983C-71.8896 52.5355 -92.2236 72.5699 -112.727 92.4189C-120.489 99.8959 -120.256 117.416 -108.546 126.966C-54.3575 171.158 14.9403 178.198 57.3858 143.012C66.6493 135.333 74.4232 126.178 83.0432 117.85C85.0672 115.9 87.0205 114.019 89.1579 112.259C90.1699 111.284 91.2393 110.503 92.3134 109.667C92.4855 109.501 93.152 109.033 93.7323 108.599C94.6276 108.06 96.8615 106.63 96.7448 106.693C97.8991 106.054 99.0791 105.44 100.287 104.873C101.496 104.306 102.728 103.842 103.965 103.322L104.673 103.013L105.253 102.952C106.614 102.711 107.972 102.448 109.377 102.29C109.621 102.254 110.688 102.197 111.54 102.147C112.707 102.267 115.658 102.462 115.507 102.432C116.415 102.554 117.317 102.729 118.23 102.895C117.925 102.99 123.005 104.443 123.978 104.825C124.951 105.207 126.154 105.716 127.229 106.198C127.768 106.45 128.502 106.814 129.156 107.179C140.957 113.831 151.805 122.146 162.75 130.318C188.94 149.888 215.543 164.48 245.211 163.303C258.404 162.79 270.476 158.703 282.022 154.575C287.143 152.728 292.195 150.773 297.368 148.976C304.528 146.51 304.259 146.345 311.941 145.018C314.643 144.556 317.411 144.279 320.198 144.058C320.445 144.044 321.306 144.061 321.861 144.074C323.033 144.139 324.256 144.255 325.372 144.325C326.025 144.394 331.981 145.426 331.255 145.129C334.348 145.957 337.428 147 340.47 148.249C341.693 148.738 346.739 151.219 345.762 150.617C348.122 151.903 350.44 153.229 352.737 154.65C358.396 158.188 363.893 162.037 369.195 166.173C369.041 166.023 373.556 169.712 374.46 170.459C376.988 172.579 379.492 174.695 381.99 176.844C387.679 181.742 393.277 186.727 399.024 191.545C410.482 201.591 422.483 210.981 434.936 219.644C463.343 238.77 495.346 248.111 524.323 242.722C539.243 239.948 553.402 234.622 564.166 225.523C574.226 217.028 582.693 206.931 589.337 195.504C594.527 186.473 579.503 176.058 572.08 181.863C571.244 182.519 570.396 183.163 569.537 183.816C567.82 179.866 565.292 176.131 562.133 172.879C539.396 149.337 514.698 128.181 490.339 106.275C466.481 84.8075 442.842 63.0883 419.42 41.1175C372.109 -3.20312 326.089 -48.7173 280.489 -94.6854C254.556 -120.823 228.908 -147.212 203.772 -174.043C192.222 -186.286 172.94 -187.623 163.832 -178.85C91.5414 -108.844 20.0377 -38.1275 -51.5786 32.4983Z" fill="#ECB3F0"/>
</mask>
<g mask="url(#mask0_178_1441)">
<path d="M-2.23535 -0.00195312H384.062V148.998C384.062 208.645 335.709 256.998 276.062 256.998H78.7646C34.0295 256.998 -2.23535 220.733 -2.23535 175.998V-0.00195312Z" fill="#8AC926"/>
</g>
</svg>
