<svg width="327" height="52" viewBox="0 0 327 52" fill="none" xmlns="http://www.w3.org/2000/svg">
<g clip-path="url(#clip0_169_825)">
<rect width="327" height="52" rx="12" fill="white"/>
<path d="M146.016 26.216C145.312 25.976 144.672 25.736 144.096 25.496C143.52 25.24 143.024 24.936 142.608 24.584C142.192 24.232 141.864 23.816 141.624 23.336C141.4 22.84 141.288 22.24 141.288 21.536C141.288 20.176 141.808 19.088 142.848 18.272C143.904 17.456 145.376 17.048 147.264 17.048C147.952 17.048 148.592 17.096 149.184 17.192C149.776 17.288 150.28 17.44 150.696 17.648C151.128 17.84 151.464 18.096 151.704 18.416C151.944 18.72 152.064 19.08 152.064 19.496C152.064 19.912 151.968 20.272 151.776 20.576C151.584 20.864 151.352 21.112 151.08 21.32C150.728 21.096 150.256 20.904 149.664 20.744C149.072 20.568 148.424 20.48 147.72 20.48C147 20.48 146.472 20.584 146.136 20.792C145.8 20.984 145.632 21.232 145.632 21.536C145.632 21.776 145.736 21.976 145.944 22.136C146.152 22.28 146.464 22.416 146.88 22.544L148.152 22.952C149.656 23.432 150.808 24.048 151.608 24.8C152.424 25.536 152.832 26.544 152.832 27.824C152.832 29.184 152.296 30.288 151.224 31.136C150.152 31.968 148.576 32.384 146.496 32.384C145.76 32.384 145.072 32.32 144.432 32.192C143.808 32.08 143.256 31.912 142.776 31.688C142.312 31.448 141.944 31.16 141.672 30.824C141.416 30.472 141.288 30.072 141.288 29.624C141.288 29.16 141.424 28.768 141.696 28.448C141.968 28.112 142.264 27.856 142.584 27.68C143.032 28.032 143.576 28.336 144.216 28.592C144.872 28.848 145.584 28.976 146.352 28.976C147.136 28.976 147.688 28.856 148.008 28.616C148.328 28.376 148.488 28.096 148.488 27.776C148.488 27.456 148.36 27.216 148.104 27.056C147.848 26.88 147.488 26.712 147.024 26.552L146.016 26.216ZM166.195 29.888C166.115 30.64 165.891 31.216 165.523 31.616C165.171 32.016 164.651 32.216 163.963 32.216C163.451 32.216 162.995 32.096 162.595 31.856C162.195 31.6 161.763 31.176 161.299 30.584L158.923 27.608V31.976C158.747 32.008 158.483 32.048 158.131 32.096C157.795 32.16 157.451 32.192 157.099 32.192C156.747 32.192 156.427 32.168 156.139 32.12C155.867 32.072 155.635 31.976 155.443 31.832C155.251 31.688 155.099 31.496 154.987 31.256C154.891 31 154.843 30.672 154.843 30.272V16.376C155.019 16.328 155.275 16.28 155.611 16.232C155.963 16.168 156.315 16.136 156.667 16.136C157.019 16.136 157.331 16.16 157.603 16.208C157.891 16.256 158.131 16.352 158.323 16.496C158.515 16.64 158.659 16.84 158.755 17.096C158.867 17.336 158.923 17.656 158.923 18.056V24.392L163.051 20.168C163.883 20.168 164.547 20.352 165.043 20.72C165.555 21.088 165.811 21.552 165.811 22.112C165.811 22.352 165.771 22.576 165.691 22.784C165.611 22.976 165.483 23.176 165.307 23.384C165.147 23.592 164.931 23.816 164.659 24.056C164.403 24.28 164.099 24.544 163.747 24.848L162.355 26.048L166.195 29.888ZM168.011 17.096C168.011 16.488 168.211 15.976 168.611 15.56C169.027 15.144 169.571 14.936 170.243 14.936C170.915 14.936 171.451 15.144 171.851 15.56C172.267 15.976 172.475 16.488 172.475 17.096C172.475 17.704 172.267 18.216 171.851 18.632C171.451 19.048 170.915 19.256 170.243 19.256C169.571 19.256 169.027 19.048 168.611 18.632C168.211 18.216 168.011 17.704 168.011 17.096ZM172.283 31.976C172.107 32.008 171.843 32.048 171.491 32.096C171.155 32.16 170.811 32.192 170.459 32.192C170.107 32.192 169.787 32.168 169.499 32.12C169.227 32.072 168.995 31.976 168.803 31.832C168.611 31.688 168.459 31.496 168.347 31.256C168.251 31 168.203 30.672 168.203 30.272V20.504C168.379 20.472 168.635 20.432 168.971 20.384C169.323 20.32 169.675 20.288 170.027 20.288C170.379 20.288 170.691 20.312 170.963 20.36C171.251 20.408 171.491 20.504 171.683 20.648C171.875 20.792 172.019 20.992 172.115 21.248C172.227 21.488 172.283 21.808 172.283 22.208V31.976ZM180.233 19.976C181.193 19.976 182.081 20.104 182.897 20.36C183.729 20.6 184.441 20.976 185.033 21.488C185.625 22 186.089 22.648 186.425 23.432C186.761 24.2 186.929 25.12 186.929 26.192C186.929 27.216 186.785 28.112 186.497 28.88C186.209 29.648 185.801 30.296 185.273 30.824C184.745 31.336 184.105 31.72 183.353 31.976C182.617 32.232 181.793 32.36 180.881 32.36C180.193 32.36 179.553 32.256 178.961 32.048V36.032C178.801 36.08 178.545 36.128 178.193 36.176C177.841 36.24 177.481 36.272 177.113 36.272C176.761 36.272 176.441 36.248 176.153 36.2C175.881 36.152 175.649 36.056 175.457 35.912C175.265 35.768 175.121 35.568 175.025 35.312C174.929 35.072 174.881 34.752 174.881 34.352V22.832C174.881 22.4 174.969 22.048 175.145 21.776C175.337 21.504 175.593 21.256 175.913 21.032C176.409 20.712 177.025 20.456 177.761 20.264C178.497 20.072 179.321 19.976 180.233 19.976ZM180.281 29.144C181.929 29.144 182.753 28.16 182.753 26.192C182.753 25.168 182.545 24.408 182.129 23.912C181.729 23.416 181.145 23.168 180.377 23.168C180.073 23.168 179.801 23.208 179.561 23.288C179.321 23.352 179.113 23.432 178.937 23.528V28.808C179.129 28.904 179.337 28.984 179.561 29.048C179.785 29.112 180.025 29.144 180.281 29.144Z" fill="#FFCA3A"/>
</g>
<defs>
<clipPath id="clip0_169_825">
<rect width="327" height="52" fill="white"/>
</clipPath>
</defs>
</svg>
