<svg width="327" height="58" viewBox="0 0 327 58" fill="none" xmlns="http://www.w3.org/2000/svg">
<g filter="url(#filter0_di_169_804)">
<rect width="327" height="52" rx="12" fill="#8AC926"/>
<path d="M152.808 31.7958C152.584 32.0198 152.256 32.1878 151.824 32.2998C151.408 32.4278 150.904 32.4918 150.312 32.4918C149.72 32.4918 149.16 32.4038 148.632 32.2278C148.104 32.0518 147.672 31.6278 147.336 30.9558L144.96 26.1078C144.72 25.6118 144.504 25.1478 144.312 24.7158C144.12 24.2678 143.912 23.7558 143.688 23.1798L143.544 23.2038C143.608 24.0678 143.64 24.9478 143.64 25.8438C143.656 26.7398 143.664 27.6198 143.664 28.4838V32.2038C143.488 32.2518 143.216 32.2998 142.848 32.3478C142.496 32.3958 142.144 32.4198 141.792 32.4198C141.44 32.4198 141.128 32.3958 140.856 32.3478C140.584 32.2998 140.36 32.2038 140.184 32.0598C140.008 31.9158 139.872 31.7238 139.776 31.4838C139.68 31.2278 139.632 30.8998 139.632 30.4998V18.4998C139.856 18.1798 140.2 17.9398 140.664 17.7798C141.128 17.6198 141.624 17.5398 142.152 17.5398C142.744 17.5398 143.304 17.6358 143.832 17.8278C144.376 18.0038 144.808 18.4198 145.128 19.0758L147.528 23.9238C147.768 24.4198 147.984 24.8918 148.176 25.3398C148.368 25.7718 148.576 26.2758 148.8 26.8518L148.92 26.8278C148.856 25.9638 148.816 25.0998 148.8 24.2358C148.784 23.3718 148.776 22.5078 148.776 21.6438V17.7558C148.952 17.7078 149.216 17.6598 149.568 17.6118C149.936 17.5638 150.296 17.5398 150.648 17.5398C151.352 17.5398 151.888 17.6678 152.256 17.9238C152.624 18.1638 152.808 18.6758 152.808 19.4598V31.7958ZM161.777 32.6838C160.833 32.6838 159.953 32.5558 159.137 32.2998C158.337 32.0278 157.633 31.6278 157.025 31.0998C156.433 30.5718 155.961 29.9078 155.609 29.1078C155.273 28.3078 155.105 27.3718 155.105 26.2998C155.105 25.2438 155.273 24.3398 155.609 23.5878C155.961 22.8198 156.417 22.1958 156.977 21.7158C157.537 21.2198 158.177 20.8598 158.897 20.6358C159.617 20.3958 160.353 20.2758 161.105 20.2758C161.953 20.2758 162.721 20.4038 163.409 20.6598C164.113 20.9158 164.713 21.2678 165.209 21.7158C165.721 22.1638 166.113 22.6998 166.385 23.3238C166.673 23.9478 166.817 24.6278 166.817 25.3638C166.817 25.9078 166.665 26.3238 166.361 26.6118C166.057 26.8998 165.633 27.0838 165.089 27.1638L159.161 28.0518C159.337 28.5798 159.697 28.9798 160.241 29.2518C160.785 29.5078 161.409 29.6358 162.113 29.6358C162.769 29.6358 163.385 29.5558 163.961 29.3958C164.553 29.2198 165.033 29.0198 165.401 28.7958C165.657 28.9558 165.873 29.1798 166.049 29.4678C166.225 29.7558 166.313 30.0598 166.313 30.3798C166.313 31.0998 165.977 31.6358 165.305 31.9878C164.793 32.2598 164.217 32.4438 163.577 32.5398C162.937 32.6358 162.337 32.6838 161.777 32.6838ZM161.105 23.2518C160.721 23.2518 160.385 23.3158 160.097 23.4438C159.825 23.5718 159.601 23.7398 159.425 23.9478C159.249 24.1398 159.113 24.3638 159.017 24.6198C158.937 24.8598 158.889 25.1078 158.873 25.3638L162.977 24.6918C162.929 24.3718 162.753 24.0518 162.449 23.7318C162.145 23.4118 161.697 23.2518 161.105 23.2518ZM168.016 22.5318C168.144 21.9238 168.392 21.4278 168.76 21.0438C169.144 20.6598 169.616 20.4678 170.176 20.4678C170.704 20.4678 171.112 20.5958 171.4 20.8518C171.688 21.1078 172.008 21.4678 172.36 21.9318L173.896 23.9478L176.464 20.4678C177.344 20.4678 178.04 20.6278 178.552 20.9478C179.064 21.2518 179.32 21.6678 179.32 22.1958C179.32 22.4038 179.288 22.5958 179.224 22.7718C179.176 22.9318 179.096 23.0998 178.984 23.2758C178.872 23.4518 178.728 23.6518 178.552 23.8758C178.376 24.0998 178.168 24.3638 177.928 24.6678L176.344 26.4438L179.488 30.5958C179.408 31.2038 179.168 31.6838 178.768 32.0358C178.368 32.3878 177.888 32.5638 177.328 32.5638C176.72 32.5478 176.232 32.3718 175.864 32.0358C175.512 31.6998 175.168 31.2918 174.832 30.8118L173.536 28.9638L171.088 32.4918C171.008 32.4918 170.92 32.4918 170.824 32.4918C170.728 32.5078 170.648 32.5158 170.584 32.5158C169.768 32.5158 169.144 32.3478 168.712 32.0118C168.296 31.6758 168.088 31.2598 168.088 30.7638C168.088 30.3798 168.176 30.0438 168.352 29.7558C168.544 29.4518 168.864 29.0438 169.312 28.5318L171.232 26.2998L168.016 22.5318ZM185.306 28.2918C185.306 28.7078 185.434 29.0038 185.69 29.1798C185.962 29.3558 186.338 29.4438 186.818 29.4438C187.058 29.4438 187.306 29.4278 187.562 29.3958C187.818 29.3478 188.042 29.2918 188.234 29.2278C188.378 29.4038 188.498 29.6038 188.594 29.8278C188.706 30.0358 188.762 30.2918 188.762 30.5958C188.762 31.2038 188.53 31.6998 188.066 32.0838C187.618 32.4678 186.818 32.6598 185.666 32.6598C184.258 32.6598 183.17 32.3398 182.402 31.6998C181.65 31.0598 181.274 30.0198 181.274 28.5798V18.3078C181.45 18.2598 181.698 18.2118 182.018 18.1638C182.354 18.0998 182.706 18.0678 183.074 18.0678C183.778 18.0678 184.322 18.1958 184.706 18.4518C185.106 18.6918 185.306 19.2118 185.306 20.0118V21.5478H188.45C188.546 21.7238 188.634 21.9478 188.714 22.2198C188.81 22.4758 188.858 22.7638 188.858 23.0838C188.858 23.6438 188.73 24.0518 188.474 24.3078C188.234 24.5478 187.906 24.6678 187.49 24.6678H185.306V28.2918Z" fill="white"/>
</g>
<defs>
<filter id="filter0_di_169_804" x="0" y="0" width="327" height="58" filterUnits="userSpaceOnUse" color-interpolation-filters="sRGB">
<feFlood flood-opacity="0" result="BackgroundImageFix"/>
<feColorMatrix in="SourceAlpha" type="matrix" values="0 0 0 0 0 0 0 0 0 0 0 0 0 0 0 0 0 0 127 0" result="hardAlpha"/>
<feOffset dy="6"/>
<feComposite in2="hardAlpha" operator="out"/>
<feColorMatrix type="matrix" values="0 0 0 0 0.411765 0 0 0 0 0.666667 0 0 0 0 0.00784314 0 0 0 1 0"/>
<feBlend mode="normal" in2="BackgroundImageFix" result="effect1_dropShadow_169_804"/>
<feBlend mode="normal" in="SourceGraphic" in2="effect1_dropShadow_169_804" result="shape"/>
<feColorMatrix in="SourceAlpha" type="matrix" values="0 0 0 0 0 0 0 0 0 0 0 0 0 0 0 0 0 0 127 0" result="hardAlpha"/>
<feOffset dx="4" dy="4"/>
<feComposite in2="hardAlpha" operator="arithmetic" k2="-1" k3="1"/>
<feColorMatrix type="matrix" values="0 0 0 0 0.603749 0 0 0 0 0.859167 0 0 0 0 0.198324 0 0 0 1 0"/>
<feBlend mode="normal" in2="shape" result="effect2_innerShadow_169_804"/>
</filter>
</defs>
</svg>
