<svg width="288" height="122" viewBox="0 0 288 122" fill="none" xmlns="http://www.w3.org/2000/svg">
<path d="M22.681 44.096C21.7637 44.096 21.0383 43.8293 20.505 43.296C19.9717 42.7627 19.705 42.0373 19.705 41.12V24.576C19.9397 24.5333 20.313 24.48 20.825 24.416C21.337 24.3307 21.8277 24.288 22.297 24.288C22.7877 24.288 23.2143 24.3307 23.577 24.416C23.961 24.48 24.281 24.608 24.537 24.8C24.793 24.992 24.985 25.2587 25.113 25.6C25.241 25.9413 25.305 26.3893 25.305 26.944V39.584H32.633C32.7823 39.8187 32.921 40.1387 33.049 40.544C33.177 40.928 33.241 41.3333 33.241 41.76C33.241 42.6133 33.0597 43.2213 32.697 43.584C32.3343 43.9253 31.8543 44.096 31.257 44.096H22.681ZM43.6068 44.512C42.3481 44.512 41.1748 44.3413 40.0868 44C39.0201 43.6373 38.0814 43.104 37.2708 42.4C36.4814 41.696 35.8521 40.8107 35.3828 39.744C34.9348 38.6773 34.7108 37.4293 34.7108 36C34.7108 34.592 34.9348 33.3867 35.3828 32.384C35.8521 31.36 36.4601 30.528 37.2068 29.888C37.9534 29.2267 38.8068 28.7467 39.7668 28.448C40.7268 28.128 41.7081 27.968 42.7108 27.968C43.8414 27.968 44.8654 28.1387 45.7828 28.48C46.7214 28.8213 47.5214 29.2907 48.1828 29.888C48.8654 30.4853 49.3881 31.2 49.7508 32.032C50.1348 32.864 50.3268 33.7707 50.3268 34.752C50.3268 35.4773 50.1241 36.032 49.7188 36.416C49.3134 36.8 48.7481 37.0453 48.0228 37.152L40.1188 38.336C40.3534 39.04 40.8334 39.5733 41.5588 39.936C42.2841 40.2773 43.1161 40.448 44.0548 40.448C44.9294 40.448 45.7508 40.3413 46.5188 40.128C47.3081 39.8933 47.9481 39.6267 48.4388 39.328C48.7801 39.5413 49.0681 39.84 49.3028 40.224C49.5374 40.608 49.6548 41.0133 49.6548 41.44C49.6548 42.4 49.2068 43.1147 48.3108 43.584C47.6281 43.9467 46.8601 44.192 46.0068 44.32C45.1534 44.448 44.3534 44.512 43.6068 44.512ZM42.7108 31.936C42.1988 31.936 41.7508 32.0213 41.3668 32.192C41.0041 32.3627 40.7054 32.5867 40.4708 32.864C40.2361 33.12 40.0548 33.4187 39.9268 33.76C39.8201 34.08 39.7561 34.4107 39.7348 34.752L45.2068 33.856C45.1428 33.4293 44.9081 33.0027 44.5028 32.576C44.0974 32.1493 43.5001 31.936 42.7108 31.936ZM59.6013 40.544C59.9639 40.544 60.3586 40.512 60.7853 40.448C61.2333 40.3627 61.5639 40.256 61.7773 40.128V37.568L59.4733 37.76C58.8759 37.8027 58.3853 37.9307 58.0013 38.144C57.6173 38.3573 57.4253 38.6773 57.4253 39.104C57.4253 39.5307 57.5853 39.8827 57.9053 40.16C58.2466 40.416 58.8119 40.544 59.6013 40.544ZM59.3453 27.968C60.4973 27.968 61.5426 28.0853 62.4813 28.32C63.4413 28.5547 64.2519 28.9173 64.9133 29.408C65.5959 29.8773 66.1186 30.4853 66.4813 31.232C66.8439 31.9573 67.0253 32.8213 67.0253 33.824V40.992C67.0253 41.5467 66.8653 42.0053 66.5453 42.368C66.2466 42.7093 65.8839 43.008 65.4573 43.264C64.0706 44.096 62.1186 44.512 59.6013 44.512C58.4706 44.512 57.4466 44.4053 56.5293 44.192C55.6333 43.9787 54.8546 43.6587 54.1933 43.232C53.5533 42.8053 53.0519 42.2613 52.6893 41.6C52.3479 40.9387 52.1773 40.1707 52.1773 39.296C52.1773 37.824 52.6146 36.6933 53.4893 35.904C54.3639 35.1147 55.7186 34.624 57.5533 34.432L61.7453 33.984V33.76C61.7453 33.1413 61.4679 32.704 60.9133 32.448C60.3799 32.1707 59.6013 32.032 58.5773 32.032C57.7666 32.032 56.9773 32.1173 56.2093 32.288C55.4413 32.4587 54.7479 32.672 54.1293 32.928C53.8519 32.736 53.6173 32.448 53.4253 32.064C53.2333 31.6587 53.1373 31.2427 53.1373 30.816C53.1373 30.2613 53.2653 29.824 53.5213 29.504C53.7986 29.1627 54.2146 28.8747 54.7693 28.64C55.3879 28.4053 56.1133 28.2347 56.9453 28.128C57.7986 28.0213 58.5986 27.968 59.3453 27.968ZM75.7915 43.968C75.5782 44.032 75.2368 44.096 74.7675 44.16C74.3195 44.224 73.8502 44.256 73.3595 44.256C72.8902 44.256 72.4635 44.224 72.0795 44.16C71.7168 44.096 71.4075 43.968 71.1515 43.776C70.8955 43.584 70.6928 43.328 70.5435 43.008C70.4155 42.6667 70.3515 42.2293 70.3515 41.696V32.096C70.3515 31.6053 70.4368 31.1893 70.6075 30.848C70.7995 30.4853 71.0662 30.1653 71.4075 29.888C71.7488 29.6107 72.1648 29.3653 72.6555 29.152C73.1675 28.9173 73.7115 28.7147 74.2875 28.544C74.8635 28.3733 75.4608 28.2453 76.0795 28.16C76.6982 28.0533 77.3168 28 77.9355 28C78.9595 28 79.7702 28.2027 80.3675 28.608C80.9648 28.992 81.2635 29.632 81.2635 30.528C81.2635 30.8267 81.2208 31.1253 81.1355 31.424C81.0502 31.7013 80.9435 31.9573 80.8155 32.192C80.3675 32.192 79.9088 32.2133 79.4395 32.256C78.9702 32.2987 78.5115 32.3627 78.0635 32.448C77.6155 32.5333 77.1888 32.6293 76.7835 32.736C76.3995 32.8213 76.0688 32.928 75.7915 33.056V43.968ZM93.0513 34.144C93.0513 33.4827 92.8593 33.0027 92.4753 32.704C92.1126 32.384 91.6113 32.224 90.9713 32.224C90.5446 32.224 90.1179 32.2773 89.6913 32.384C89.2859 32.4907 88.9339 32.6507 88.6353 32.864V43.968C88.4219 44.032 88.0806 44.096 87.6113 44.16C87.1633 44.224 86.6939 44.256 86.2033 44.256C85.7339 44.256 85.3073 44.224 84.9233 44.16C84.5606 44.096 84.2513 43.968 83.9953 43.776C83.7393 43.584 83.5366 43.328 83.3873 43.008C83.2593 42.6667 83.1953 42.2293 83.1953 41.696V32.096C83.1953 31.52 83.3126 31.0507 83.5473 30.688C83.8033 30.3253 84.1446 29.9947 84.5713 29.696C85.2966 29.184 86.2033 28.768 87.2913 28.448C88.4006 28.128 89.6273 27.968 90.9713 27.968C93.3819 27.968 95.2379 28.5013 96.5393 29.568C97.8406 30.6133 98.4913 32.0747 98.4913 33.952V43.968C98.2779 44.032 97.9366 44.096 97.4673 44.16C97.0193 44.224 96.5499 44.256 96.0593 44.256C95.5899 44.256 95.1633 44.224 94.7793 44.16C94.4166 44.096 94.1073 43.968 93.8513 43.776C93.5953 43.584 93.3926 43.328 93.2433 43.008C93.1153 42.6667 93.0513 42.2293 93.0513 41.696V34.144ZM118.114 34.144C118.114 33.4827 117.922 33.0027 117.538 32.704C117.175 32.384 116.674 32.224 116.034 32.224C115.607 32.224 115.18 32.2773 114.754 32.384C114.348 32.4907 113.996 32.6507 113.698 32.864V43.968C113.484 44.032 113.143 44.096 112.674 44.16C112.226 44.224 111.756 44.256 111.266 44.256C110.796 44.256 110.37 44.224 109.986 44.16C109.623 44.096 109.314 43.968 109.058 43.776C108.802 43.584 108.599 43.328 108.45 43.008C108.322 42.6667 108.258 42.2293 108.258 41.696V32.096C108.258 31.52 108.375 31.0507 108.61 30.688C108.866 30.3253 109.207 29.9947 109.634 29.696C110.359 29.184 111.266 28.768 112.354 28.448C113.463 28.128 114.69 27.968 116.034 27.968C118.444 27.968 120.3 28.5013 121.602 29.568C122.903 30.6133 123.554 32.0747 123.554 33.952V43.968C123.34 44.032 122.999 44.096 122.53 44.16C122.082 44.224 121.612 44.256 121.122 44.256C120.652 44.256 120.226 44.224 119.842 44.16C119.479 44.096 119.17 43.968 118.914 43.776C118.658 43.584 118.455 43.328 118.306 43.008C118.178 42.6667 118.114 42.2293 118.114 41.696V34.144ZM126.914 28.672C127.127 28.608 127.458 28.544 127.906 28.48C128.375 28.416 128.855 28.384 129.346 28.384C129.815 28.384 130.231 28.416 130.594 28.48C130.978 28.544 131.298 28.672 131.554 28.864C131.81 29.056 132.002 29.3227 132.13 29.664C132.279 29.984 132.354 30.4107 132.354 30.944V37.824C132.354 38.6987 132.567 39.328 132.994 39.712C133.421 40.0747 134.039 40.256 134.85 40.256C135.341 40.256 135.735 40.2133 136.034 40.128C136.354 40.0427 136.599 39.9573 136.77 39.872V28.672C136.983 28.608 137.314 28.544 137.762 28.48C138.231 28.416 138.711 28.384 139.202 28.384C139.671 28.384 140.087 28.416 140.45 28.48C140.834 28.544 141.154 28.672 141.41 28.864C141.666 29.056 141.858 29.3227 141.986 29.664C142.135 29.984 142.21 30.4107 142.21 30.944V40.672C142.21 41.7387 141.762 42.5387 140.866 43.072C140.119 43.5413 139.223 43.8933 138.178 44.128C137.154 44.384 136.034 44.512 134.818 44.512C133.666 44.512 132.599 44.384 131.618 44.128C130.658 43.872 129.826 43.4773 129.122 42.944C128.418 42.4107 127.874 41.728 127.49 40.896C127.106 40.0427 126.914 39.0187 126.914 37.824V28.672ZM152.995 27.968C153.87 27.968 154.723 28.096 155.555 28.352C156.408 28.5867 157.144 28.9493 157.763 29.44C158.403 29.0133 159.118 28.6613 159.907 28.384C160.718 28.1067 161.688 27.968 162.819 27.968C163.63 27.968 164.419 28.0747 165.187 28.288C165.976 28.5013 166.67 28.8427 167.267 29.312C167.886 29.76 168.376 30.368 168.739 31.136C169.102 31.8827 169.283 32.8 169.283 33.888V43.968C169.07 44.032 168.728 44.096 168.259 44.16C167.811 44.224 167.342 44.256 166.851 44.256C166.382 44.256 165.955 44.224 165.571 44.16C165.208 44.096 164.899 43.968 164.643 43.776C164.387 43.584 164.184 43.328 164.035 43.008C163.907 42.6667 163.843 42.2293 163.843 41.696V34.048C163.843 33.408 163.662 32.9493 163.299 32.672C162.936 32.3733 162.446 32.224 161.827 32.224C161.528 32.224 161.208 32.2987 160.867 32.448C160.526 32.576 160.27 32.7147 160.099 32.864C160.12 32.9493 160.131 33.0347 160.131 33.12C160.131 33.184 160.131 33.248 160.131 33.312V43.968C159.896 44.032 159.544 44.096 159.075 44.16C158.627 44.224 158.168 44.256 157.699 44.256C157.23 44.256 156.803 44.224 156.419 44.16C156.056 44.096 155.747 43.968 155.491 43.776C155.235 43.584 155.032 43.328 154.883 43.008C154.755 42.6667 154.691 42.2293 154.691 41.696V34.048C154.691 33.408 154.488 32.9493 154.083 32.672C153.699 32.3733 153.23 32.224 152.675 32.224C152.291 32.224 151.96 32.288 151.683 32.416C151.406 32.5227 151.171 32.6293 150.979 32.736V43.968C150.766 44.032 150.424 44.096 149.955 44.16C149.507 44.224 149.038 44.256 148.547 44.256C148.078 44.256 147.651 44.224 147.267 44.16C146.904 44.096 146.595 43.968 146.339 43.776C146.083 43.584 145.88 43.328 145.731 43.008C145.603 42.6667 145.539 42.2293 145.539 41.696V32.032C145.539 31.456 145.656 30.9973 145.891 30.656C146.147 30.3147 146.488 29.9947 146.915 29.696C147.64 29.184 148.536 28.768 149.603 28.448C150.691 28.128 151.822 27.968 152.995 27.968ZM172.666 23.168C172.879 23.104 173.22 23.04 173.69 22.976C174.159 22.8907 174.639 22.848 175.13 22.848C175.599 22.848 176.015 22.88 176.378 22.944C176.762 23.008 177.082 23.136 177.338 23.328C177.594 23.52 177.786 23.7867 177.914 24.128C178.042 24.448 178.106 24.8747 178.106 25.408V28.544C178.639 28.3307 179.14 28.1813 179.61 28.096C180.1 28.0107 180.634 27.968 181.21 27.968C182.234 27.968 183.204 28.1493 184.122 28.512C185.039 28.8747 185.85 29.408 186.554 30.112C187.258 30.7947 187.812 31.648 188.218 32.672C188.623 33.696 188.826 34.88 188.826 36.224C188.826 37.6107 188.612 38.8267 188.186 39.872C187.78 40.896 187.204 41.7493 186.458 42.432C185.711 43.1147 184.794 43.6373 183.706 44C182.639 44.3413 181.455 44.512 180.154 44.512C178.746 44.512 177.551 44.3413 176.57 44C175.588 43.68 174.756 43.2747 174.074 42.784C173.135 42.1227 172.666 41.2693 172.666 40.224V23.168ZM180.154 40.224C181.135 40.224 181.892 39.8933 182.426 39.232C182.98 38.5493 183.258 37.5467 183.258 36.224C183.258 34.88 182.98 33.8773 182.426 33.216C181.871 32.5547 181.124 32.224 180.186 32.224C179.759 32.224 179.386 32.2667 179.066 32.352C178.767 32.4373 178.436 32.5653 178.074 32.736V39.712C178.308 39.8613 178.586 39.9893 178.906 40.096C179.247 40.1813 179.663 40.224 180.154 40.224ZM199.701 44.512C198.442 44.512 197.269 44.3413 196.181 44C195.114 43.6373 194.175 43.104 193.365 42.4C192.575 41.696 191.946 40.8107 191.477 39.744C191.029 38.6773 190.805 37.4293 190.805 36C190.805 34.592 191.029 33.3867 191.477 32.384C191.946 31.36 192.554 30.528 193.301 29.888C194.047 29.2267 194.901 28.7467 195.861 28.448C196.821 28.128 197.802 27.968 198.805 27.968C199.935 27.968 200.959 28.1387 201.877 28.48C202.815 28.8213 203.615 29.2907 204.277 29.888C204.959 30.4853 205.482 31.2 205.845 32.032C206.229 32.864 206.421 33.7707 206.421 34.752C206.421 35.4773 206.218 36.032 205.812 36.416C205.407 36.8 204.842 37.0453 204.117 37.152L196.213 38.336C196.447 39.04 196.927 39.5733 197.653 39.936C198.378 40.2773 199.21 40.448 200.149 40.448C201.023 40.448 201.845 40.3413 202.613 40.128C203.402 39.8933 204.042 39.6267 204.533 39.328C204.874 39.5413 205.162 39.84 205.397 40.224C205.631 40.608 205.749 41.0133 205.749 41.44C205.749 42.4 205.301 43.1147 204.405 43.584C203.722 43.9467 202.954 44.192 202.101 44.32C201.247 44.448 200.447 44.512 199.701 44.512ZM198.805 31.936C198.293 31.936 197.845 32.0213 197.461 32.192C197.098 32.3627 196.799 32.5867 196.565 32.864C196.33 33.12 196.149 33.4187 196.021 33.76C195.914 34.08 195.85 34.4107 195.829 34.752L201.301 33.856C201.237 33.4293 201.002 33.0027 200.597 32.576C200.191 32.1493 199.594 31.936 198.805 31.936ZM214.479 43.968C214.266 44.032 213.924 44.096 213.455 44.16C213.007 44.224 212.538 44.256 212.047 44.256C211.578 44.256 211.151 44.224 210.767 44.16C210.404 44.096 210.095 43.968 209.839 43.776C209.583 43.584 209.38 43.328 209.231 43.008C209.103 42.6667 209.039 42.2293 209.039 41.696V32.096C209.039 31.6053 209.124 31.1893 209.295 30.848C209.487 30.4853 209.754 30.1653 210.095 29.888C210.436 29.6107 210.852 29.3653 211.343 29.152C211.855 28.9173 212.399 28.7147 212.975 28.544C213.551 28.3733 214.148 28.2453 214.767 28.16C215.386 28.0533 216.004 28 216.623 28C217.647 28 218.458 28.2027 219.055 28.608C219.652 28.992 219.951 29.632 219.951 30.528C219.951 30.8267 219.908 31.1253 219.823 31.424C219.738 31.7013 219.631 31.9573 219.503 32.192C219.055 32.192 218.596 32.2133 218.127 32.256C217.658 32.2987 217.199 32.3627 216.751 32.448C216.303 32.5333 215.876 32.6293 215.471 32.736C215.087 32.8213 214.756 32.928 214.479 33.056V43.968ZM235.315 39.36C235.315 40.9813 234.707 42.2507 233.491 43.168C232.275 44.0853 230.483 44.544 228.115 44.544C227.219 44.544 226.387 44.48 225.619 44.352C224.851 44.224 224.19 44.032 223.635 43.776C223.102 43.4987 222.675 43.1573 222.355 42.752C222.057 42.3467 221.907 41.8667 221.907 41.312C221.907 40.8 222.014 40.3733 222.227 40.032C222.441 39.6693 222.697 39.3707 222.995 39.136C223.614 39.4773 224.318 39.7867 225.107 40.064C225.918 40.32 226.846 40.448 227.891 40.448C228.553 40.448 229.054 40.352 229.395 40.16C229.758 39.968 229.939 39.712 229.939 39.392C229.939 39.0933 229.811 38.8587 229.555 38.688C229.299 38.5173 228.873 38.3787 228.275 38.272L227.315 38.08C225.459 37.7173 224.073 37.152 223.155 36.384C222.259 35.5947 221.811 34.4747 221.811 33.024C221.811 32.2347 221.982 31.52 222.323 30.88C222.665 30.24 223.145 29.7067 223.763 29.28C224.382 28.8533 225.118 28.5227 225.971 28.288C226.846 28.0533 227.806 27.936 228.851 27.936C229.641 27.936 230.377 28 231.059 28.128C231.763 28.2347 232.371 28.4053 232.883 28.64C233.395 28.8747 233.801 29.184 234.099 29.568C234.398 29.9307 234.547 30.368 234.547 30.88C234.547 31.3707 234.451 31.7973 234.259 32.16C234.089 32.5013 233.865 32.7893 233.587 33.024C233.417 32.9173 233.161 32.8107 232.819 32.704C232.478 32.576 232.105 32.4693 231.699 32.384C231.294 32.2773 230.878 32.192 230.451 32.128C230.046 32.064 229.673 32.032 229.331 32.032C228.627 32.032 228.083 32.1173 227.699 32.288C227.315 32.4373 227.123 32.6827 227.123 33.024C227.123 33.2587 227.23 33.4507 227.443 33.6C227.657 33.7493 228.062 33.888 228.659 34.016L229.651 34.24C231.699 34.7093 233.15 35.36 234.003 36.192C234.878 37.0027 235.315 38.0587 235.315 39.36ZM244.224 24.128C244.224 23.3173 244.49 22.6347 245.024 22.08C245.578 21.5253 246.304 21.248 247.2 21.248C248.096 21.248 248.81 21.5253 249.344 22.08C249.898 22.6347 250.176 23.3173 250.176 24.128C250.176 24.9387 249.898 25.6213 249.344 26.176C248.81 26.7307 248.096 27.008 247.2 27.008C246.304 27.008 245.578 26.7307 245.024 26.176C244.49 25.6213 244.224 24.9387 244.224 24.128ZM249.92 43.968C249.685 44.0107 249.333 44.064 248.864 44.128C248.416 44.2133 247.957 44.256 247.488 44.256C247.018 44.256 246.592 44.224 246.208 44.16C245.845 44.096 245.536 43.968 245.28 43.776C245.024 43.584 244.821 43.328 244.672 43.008C244.544 42.6667 244.48 42.2293 244.48 41.696V28.672C244.714 28.6293 245.056 28.576 245.504 28.512C245.973 28.4267 246.442 28.384 246.911 28.384C247.381 28.384 247.797 28.416 248.16 28.48C248.544 28.544 248.864 28.672 249.12 28.864C249.376 29.056 249.568 29.3227 249.696 29.664C249.845 29.984 249.92 30.4107 249.92 30.944V43.968ZM263.239 34.144C263.239 33.4827 263.047 33.0027 262.663 32.704C262.3 32.384 261.799 32.224 261.159 32.224C260.732 32.224 260.305 32.2773 259.879 32.384C259.473 32.4907 259.121 32.6507 258.823 32.864V43.968C258.609 44.032 258.268 44.096 257.799 44.16C257.351 44.224 256.881 44.256 256.391 44.256C255.921 44.256 255.495 44.224 255.111 44.16C254.748 44.096 254.439 43.968 254.183 43.776C253.927 43.584 253.724 43.328 253.575 43.008C253.447 42.6667 253.383 42.2293 253.383 41.696V32.096C253.383 31.52 253.5 31.0507 253.735 30.688C253.991 30.3253 254.332 29.9947 254.759 29.696C255.484 29.184 256.391 28.768 257.479 28.448C258.588 28.128 259.815 27.968 261.159 27.968C263.569 27.968 265.425 28.5013 266.727 29.568C268.028 30.6133 268.679 32.0747 268.679 33.952V43.968C268.465 44.032 268.124 44.096 267.655 44.16C267.207 44.224 266.737 44.256 266.247 44.256C265.777 44.256 265.351 44.224 264.967 44.16C264.604 44.096 264.295 43.968 264.039 43.776C263.783 43.584 263.58 43.328 263.431 43.008C263.303 42.6667 263.239 42.2293 263.239 41.696V34.144ZM81.8669 91.544C82.2295 91.544 82.6242 91.512 83.0509 91.448C83.4989 91.3627 83.8295 91.256 84.0429 91.128V88.568L81.7389 88.76C81.1415 88.8027 80.6509 88.9307 80.2669 89.144C79.8829 89.3573 79.6909 89.6773 79.6909 90.104C79.6909 90.5307 79.8509 90.8827 80.1709 91.16C80.5122 91.416 81.0775 91.544 81.8669 91.544ZM81.6109 78.968C82.7629 78.968 83.8082 79.0853 84.7469 79.32C85.7069 79.5547 86.5175 79.9173 87.1789 80.408C87.8615 80.8773 88.3842 81.4853 88.7469 82.232C89.1095 82.9573 89.2909 83.8213 89.2909 84.824V91.992C89.2909 92.5467 89.1309 93.0053 88.8109 93.368C88.5122 93.7093 88.1495 94.008 87.7229 94.264C86.3362 95.096 84.3842 95.512 81.8669 95.512C80.7362 95.512 79.7122 95.4053 78.7949 95.192C77.8989 94.9787 77.1202 94.6587 76.4589 94.232C75.8189 93.8053 75.3175 93.2613 74.9549 92.6C74.6135 91.9387 74.4429 91.1707 74.4429 90.296C74.4429 88.824 74.8802 87.6933 75.7549 86.904C76.6295 86.1147 77.9842 85.624 79.8189 85.432L84.0109 84.984V84.76C84.0109 84.1413 83.7335 83.704 83.1789 83.448C82.6455 83.1707 81.8669 83.032 80.8429 83.032C80.0322 83.032 79.2429 83.1173 78.4749 83.288C77.7069 83.4587 77.0135 83.672 76.3949 83.928C76.1175 83.736 75.8829 83.448 75.6909 83.064C75.4989 82.6587 75.4029 82.2427 75.4029 81.816C75.4029 81.2613 75.5309 80.824 75.7869 80.504C76.0642 80.1627 76.4802 79.8747 77.0349 79.64C77.6535 79.4053 78.3789 79.2347 79.2109 79.128C80.0642 79.0213 80.8642 78.968 81.6109 78.968ZM99.0874 79.448C99.0874 78.36 99.2687 77.432 99.6314 76.664C100.015 75.8747 100.527 75.2347 101.167 74.744C101.807 74.232 102.554 73.8587 103.407 73.624C104.282 73.3893 105.21 73.272 106.191 73.272C107.77 73.272 108.933 73.4853 109.679 73.912C110.426 74.3173 110.799 75.0213 110.799 76.024C110.799 76.4507 110.703 76.8347 110.511 77.176C110.341 77.5173 110.149 77.7733 109.935 77.944C109.53 77.8373 109.103 77.752 108.655 77.688C108.229 77.6027 107.727 77.56 107.151 77.56C106.234 77.56 105.519 77.72 105.007 78.04C104.495 78.3387 104.239 78.872 104.239 79.64V80.664H109.487C109.615 80.8987 109.733 81.1973 109.839 81.56C109.967 81.9013 110.031 82.2853 110.031 82.712C110.031 83.4587 109.861 84.0027 109.519 84.344C109.199 84.664 108.762 84.824 108.207 84.824H104.527V94.968C104.314 95.032 103.973 95.096 103.503 95.16C103.055 95.224 102.586 95.256 102.095 95.256C101.626 95.256 101.199 95.224 100.815 95.16C100.453 95.096 100.143 94.968 99.8874 94.776C99.6314 94.584 99.4287 94.328 99.2794 94.008C99.1514 93.6667 99.0874 93.2293 99.0874 92.696V79.448ZM112.461 79.672C112.674 79.608 113.005 79.544 113.453 79.48C113.922 79.416 114.402 79.384 114.893 79.384C115.362 79.384 115.778 79.416 116.141 79.48C116.525 79.544 116.845 79.672 117.101 79.864C117.357 80.056 117.549 80.3227 117.677 80.664C117.826 80.984 117.901 81.4107 117.901 81.944V88.824C117.901 89.6987 118.114 90.328 118.541 90.712C118.968 91.0747 119.586 91.256 120.397 91.256C120.888 91.256 121.282 91.2133 121.581 91.128C121.901 91.0427 122.146 90.9573 122.317 90.872V79.672C122.53 79.608 122.861 79.544 123.309 79.48C123.778 79.416 124.258 79.384 124.749 79.384C125.218 79.384 125.634 79.416 125.997 79.48C126.381 79.544 126.701 79.672 126.957 79.864C127.213 80.056 127.405 80.3227 127.533 80.664C127.682 80.984 127.757 81.4107 127.757 81.944V91.672C127.757 92.7387 127.309 93.5387 126.413 94.072C125.666 94.5413 124.77 94.8933 123.725 95.128C122.701 95.384 121.581 95.512 120.365 95.512C119.213 95.512 118.146 95.384 117.165 95.128C116.205 94.872 115.373 94.4773 114.669 93.944C113.965 93.4107 113.421 92.728 113.037 91.896C112.653 91.0427 112.461 90.0187 112.461 88.824V79.672ZM140.942 85.144C140.942 84.4827 140.75 84.0027 140.366 83.704C140.003 83.384 139.502 83.224 138.862 83.224C138.435 83.224 138.009 83.2773 137.582 83.384C137.177 83.4907 136.825 83.6507 136.526 83.864V94.968C136.313 95.032 135.971 95.096 135.502 95.16C135.054 95.224 134.585 95.256 134.094 95.256C133.625 95.256 133.198 95.224 132.814 95.16C132.451 95.096 132.142 94.968 131.886 94.776C131.63 94.584 131.427 94.328 131.278 94.008C131.15 93.6667 131.086 93.2293 131.086 92.696V83.096C131.086 82.52 131.203 82.0507 131.438 81.688C131.694 81.3253 132.035 80.9947 132.462 80.696C133.187 80.184 134.094 79.768 135.182 79.448C136.291 79.128 137.518 78.968 138.862 78.968C141.273 78.968 143.129 79.5013 144.43 80.568C145.731 81.6133 146.382 83.0747 146.382 84.952V94.968C146.169 95.032 145.827 95.096 145.358 95.16C144.91 95.224 144.441 95.256 143.95 95.256C143.481 95.256 143.054 95.224 142.67 95.16C142.307 95.096 141.998 94.968 141.742 94.776C141.486 94.584 141.283 94.328 141.134 94.008C141.006 93.6667 140.942 93.2293 140.942 92.696V85.144ZM165.012 94.52C164.714 94.776 164.308 94.9787 163.796 95.128C163.284 95.2987 162.676 95.384 161.972 95.384C161.098 95.384 160.34 95.256 159.7 95C159.06 94.7653 158.634 94.424 158.42 93.976C158.186 93.464 157.908 92.6533 157.588 91.544C157.29 90.4347 156.991 89.2187 156.692 87.896C156.394 86.5733 156.106 85.2293 155.828 83.864C155.572 82.4987 155.37 81.2933 155.22 80.248C155.519 79.9493 155.914 79.6933 156.404 79.48C156.916 79.2453 157.471 79.128 158.068 79.128C158.815 79.128 159.423 79.2987 159.892 79.64C160.383 79.96 160.682 80.5253 160.788 81.336C161.002 82.9573 161.183 84.3013 161.332 85.368C161.482 86.4133 161.599 87.2773 161.684 87.96C161.791 88.6213 161.866 89.1333 161.908 89.496C161.972 89.8373 162.026 90.1147 162.068 90.328H162.196C162.26 89.9867 162.367 89.496 162.516 88.856C162.687 88.1947 162.879 87.448 163.092 86.616C163.306 85.784 163.53 84.888 163.764 83.928C163.999 82.9467 164.234 81.976 164.468 81.016C164.895 80.7813 165.311 80.6 165.716 80.472C166.143 80.344 166.666 80.28 167.284 80.28C168.031 80.28 168.671 80.3973 169.204 80.632C169.738 80.8667 170.079 81.2293 170.228 81.72C170.484 82.6587 170.73 83.576 170.964 84.472C171.199 85.3467 171.412 86.168 171.604 86.936C171.796 87.6827 171.967 88.3547 172.116 88.952C172.266 89.528 172.372 89.9867 172.436 90.328H172.596C172.831 88.6853 173.055 86.9787 173.268 85.208C173.503 83.4373 173.716 81.6347 173.908 79.8C174.292 79.5653 174.698 79.3947 175.124 79.288C175.551 79.1813 175.978 79.128 176.404 79.128C177.151 79.128 177.77 79.288 178.26 79.608C178.751 79.928 178.996 80.4827 178.996 81.272C178.996 81.6133 178.943 82.1253 178.836 82.808C178.73 83.4907 178.591 84.2587 178.42 85.112C178.25 85.9653 178.047 86.8613 177.812 87.8C177.599 88.7387 177.375 89.6453 177.14 90.52C176.927 91.3947 176.714 92.184 176.5 92.888C176.308 93.592 176.138 94.136 175.988 94.52C175.69 94.776 175.231 94.9787 174.612 95.128C173.994 95.2987 173.332 95.384 172.628 95.384C170.836 95.384 169.78 94.936 169.46 94.04C169.332 93.656 169.172 93.176 168.98 92.6C168.788 92.0027 168.586 91.352 168.372 90.648C168.159 89.944 167.956 89.2187 167.764 88.472C167.572 87.704 167.412 86.968 167.284 86.264C167.135 87.0107 166.954 87.7893 166.74 88.6C166.527 89.3893 166.303 90.168 166.068 90.936C165.855 91.6827 165.652 92.376 165.46 93.016C165.268 93.6347 165.119 94.136 165.012 94.52ZM188.117 91.544C188.48 91.544 188.874 91.512 189.301 91.448C189.749 91.3627 190.08 91.256 190.293 91.128V88.568L187.989 88.76C187.392 88.8027 186.901 88.9307 186.517 89.144C186.133 89.3573 185.941 89.6773 185.941 90.104C185.941 90.5307 186.101 90.8827 186.421 91.16C186.762 91.416 187.328 91.544 188.117 91.544ZM187.861 78.968C189.013 78.968 190.058 79.0853 190.997 79.32C191.957 79.5547 192.768 79.9173 193.429 80.408C194.112 80.8773 194.634 81.4853 194.997 82.232C195.36 82.9573 195.541 83.8213 195.541 84.824V91.992C195.541 92.5467 195.381 93.0053 195.061 93.368C194.762 93.7093 194.4 94.008 193.973 94.264C192.586 95.096 190.634 95.512 188.117 95.512C186.986 95.512 185.962 95.4053 185.045 95.192C184.149 94.9787 183.37 94.6587 182.709 94.232C182.069 93.8053 181.568 93.2613 181.205 92.6C180.864 91.9387 180.693 91.1707 180.693 90.296C180.693 88.824 181.13 87.6933 182.005 86.904C182.88 86.1147 184.234 85.624 186.069 85.432L190.261 84.984V84.76C190.261 84.1413 189.984 83.704 189.429 83.448C188.896 83.1707 188.117 83.032 187.093 83.032C186.282 83.032 185.493 83.1173 184.725 83.288C183.957 83.4587 183.264 83.672 182.645 83.928C182.368 83.736 182.133 83.448 181.941 83.064C181.749 82.6587 181.653 82.2427 181.653 81.816C181.653 81.2613 181.781 80.824 182.037 80.504C182.314 80.1627 182.73 79.8747 183.285 79.64C183.904 79.4053 184.629 79.2347 185.461 79.128C186.314 79.0213 187.114 78.968 187.861 78.968ZM200.924 91.032C200.689 90.4987 200.433 89.9013 200.156 89.24C199.9 88.5787 199.623 87.8213 199.324 86.968C199.047 86.1147 198.748 85.144 198.428 84.056C198.129 82.9467 197.809 81.6773 197.468 80.248C197.767 79.9493 198.161 79.6933 198.652 79.48C199.164 79.2453 199.719 79.128 200.316 79.128C201.063 79.128 201.681 79.288 202.172 79.608C202.663 79.9067 203.025 80.4827 203.26 81.336L205.788 90.136H205.916C206.172 89.4107 206.417 88.6213 206.652 87.768C206.908 86.9147 207.153 86.04 207.388 85.144C207.623 84.2267 207.836 83.32 208.028 82.424C208.241 81.5067 208.423 80.6107 208.572 79.736C209.34 79.3307 210.183 79.128 211.1 79.128C211.847 79.128 212.465 79.288 212.956 79.608C213.447 79.928 213.692 80.4827 213.692 81.272C213.692 81.848 213.617 82.52 213.468 83.288C213.319 84.0347 213.116 84.8347 212.86 85.688C212.625 86.5413 212.337 87.4267 211.996 88.344C211.676 89.24 211.335 90.1253 210.972 91C210.609 91.8747 210.236 92.7067 209.852 93.496C209.468 94.264 209.095 94.9573 208.732 95.576C208.135 96.6213 207.58 97.4747 207.068 98.136C206.556 98.7973 206.065 99.3093 205.596 99.672C205.127 100.056 204.657 100.312 204.188 100.44C203.719 100.589 203.228 100.664 202.716 100.664C201.82 100.664 201.095 100.397 200.54 99.864C199.985 99.3307 199.655 98.6373 199.548 97.784C200.231 97.2507 200.913 96.6533 201.596 95.992C202.279 95.352 202.897 94.6907 203.452 94.008C203.089 93.9013 202.695 93.656 202.268 93.272C201.863 92.8667 201.415 92.12 200.924 91.032Z" fill="#8AC926"/>
</svg>
