<svg width="347" height="122" viewBox="0 0 347 122" fill="none" xmlns="http://www.w3.org/2000/svg">
<path d="M19.9935 44.096C19.0762 44.096 18.3508 43.8293 17.8175 43.296C17.2842 42.7627 17.0175 42.0373 17.0175 41.12V24.576C17.2522 24.5333 17.6255 24.48 18.1375 24.416C18.6495 24.3307 19.1402 24.288 19.6095 24.288C20.1002 24.288 20.5268 24.3307 20.8895 24.416C21.2735 24.48 21.5935 24.608 21.8495 24.8C22.1055 24.992 22.2975 25.2587 22.4255 25.6C22.5535 25.9413 22.6175 26.3893 22.6175 26.944V39.584H29.9455C30.0948 39.8187 30.2335 40.1387 30.3615 40.544C30.4895 40.928 30.5535 41.3333 30.5535 41.76C30.5535 42.6133 30.3722 43.2213 30.0095 43.584C29.6468 43.9253 29.1668 44.096 28.5695 44.096H19.9935ZM40.9193 44.512C39.6606 44.512 38.4873 44.3413 37.3993 44C36.3326 43.6373 35.3939 43.104 34.5833 42.4C33.7939 41.696 33.1646 40.8107 32.6953 39.744C32.2473 38.6773 32.0233 37.4293 32.0233 36C32.0233 34.592 32.2473 33.3867 32.6953 32.384C33.1646 31.36 33.7726 30.528 34.5193 29.888C35.2659 29.2267 36.1193 28.7467 37.0793 28.448C38.0393 28.128 39.0206 27.968 40.0233 27.968C41.1539 27.968 42.1779 28.1387 43.0953 28.48C44.0339 28.8213 44.8339 29.2907 45.4953 29.888C46.1779 30.4853 46.7006 31.2 47.0633 32.032C47.4473 32.864 47.6393 33.7707 47.6393 34.752C47.6393 35.4773 47.4366 36.032 47.0312 36.416C46.6259 36.8 46.0606 37.0453 45.3353 37.152L37.4313 38.336C37.6659 39.04 38.1459 39.5733 38.8713 39.936C39.5966 40.2773 40.4286 40.448 41.3673 40.448C42.2419 40.448 43.0633 40.3413 43.8313 40.128C44.6206 39.8933 45.2606 39.6267 45.7513 39.328C46.0926 39.5413 46.3806 39.84 46.6153 40.224C46.8499 40.608 46.9673 41.0133 46.9673 41.44C46.9673 42.4 46.5193 43.1147 45.6233 43.584C44.9406 43.9467 44.1726 44.192 43.3193 44.32C42.4659 44.448 41.6659 44.512 40.9193 44.512ZM40.0233 31.936C39.5113 31.936 39.0633 32.0213 38.6793 32.192C38.3166 32.3627 38.0179 32.5867 37.7833 32.864C37.5486 33.12 37.3673 33.4187 37.2393 33.76C37.1326 34.08 37.0686 34.4107 37.0473 34.752L42.5193 33.856C42.4553 33.4293 42.2206 33.0027 41.8153 32.576C41.4099 32.1493 40.8126 31.936 40.0233 31.936ZM55.6978 38.656C55.6978 39.2107 55.8684 39.6053 56.2098 39.84C56.5724 40.0747 57.0738 40.192 57.7138 40.192C58.0338 40.192 58.3644 40.1707 58.7058 40.128C59.0471 40.064 59.3458 39.9893 59.6018 39.904C59.7938 40.1387 59.9538 40.4053 60.0818 40.704C60.2311 40.9813 60.3058 41.3227 60.3058 41.728C60.3058 42.5387 59.9964 43.2 59.3778 43.712C58.7804 44.224 57.7138 44.48 56.1778 44.48C54.3004 44.48 52.8498 44.0533 51.8258 43.2C50.8231 42.3467 50.3218 40.96 50.3218 39.04V25.344C50.5564 25.28 50.8871 25.216 51.3138 25.152C51.7618 25.0667 52.2311 25.024 52.7218 25.024C53.6604 25.024 54.3858 25.1947 54.8978 25.536C55.4311 25.856 55.6978 26.5493 55.6978 27.616V29.664H59.8898C60.0178 29.8987 60.1351 30.1973 60.2418 30.56C60.3698 30.9013 60.4338 31.2853 60.4338 31.712C60.4338 32.4587 60.2631 33.0027 59.9218 33.344C59.6018 33.664 59.1644 33.824 58.6098 33.824H55.6978V38.656ZM66.7823 30.944C66.5476 31.072 66.2596 31.1787 65.9183 31.264C65.5769 31.3493 65.1929 31.392 64.7663 31.392C64.1903 31.392 63.6996 31.2747 63.2943 31.04C62.8889 30.784 62.6649 30.3893 62.6223 29.856L62.2063 23.744C62.5049 23.5093 62.8889 23.3067 63.3583 23.136C63.8276 22.944 64.3503 22.848 64.9263 22.848C65.7369 22.848 66.3663 23.008 66.8143 23.328C67.2836 23.648 67.5183 24.1707 67.5183 24.896C67.5183 25.1947 67.4969 25.6 67.4543 26.112C67.4116 26.624 67.3476 27.168 67.2623 27.744C67.1983 28.32 67.1236 28.896 67.0383 29.472C66.9529 30.0267 66.8676 30.5173 66.7823 30.944ZM83.1903 39.36C83.1903 40.9813 82.5823 42.2507 81.3663 43.168C80.1503 44.0853 78.3583 44.544 75.9903 44.544C75.0943 44.544 74.2623 44.48 73.4943 44.352C72.7263 44.224 72.0649 44.032 71.5103 43.776C70.9769 43.4987 70.5503 43.1573 70.2303 42.752C69.9316 42.3467 69.7823 41.8667 69.7823 41.312C69.7823 40.8 69.8889 40.3733 70.1023 40.032C70.3156 39.6693 70.5716 39.3707 70.8703 39.136C71.4889 39.4773 72.1929 39.7867 72.9823 40.064C73.7929 40.32 74.7209 40.448 75.7663 40.448C76.4276 40.448 76.9289 40.352 77.2703 40.16C77.6329 39.968 77.8142 39.712 77.8142 39.392C77.8142 39.0933 77.6863 38.8587 77.4303 38.688C77.1743 38.5173 76.7476 38.3787 76.1503 38.272L75.1903 38.08C73.3343 37.7173 71.9476 37.152 71.0303 36.384C70.1343 35.5947 69.6863 34.4747 69.6863 33.024C69.6863 32.2347 69.8569 31.52 70.1983 30.88C70.5396 30.24 71.0196 29.7067 71.6383 29.28C72.2569 28.8533 72.9929 28.5227 73.8463 28.288C74.7209 28.0533 75.6809 27.936 76.7263 27.936C77.5156 27.936 78.2516 28 78.9343 28.128C79.6383 28.2347 80.2463 28.4053 80.7583 28.64C81.2703 28.8747 81.6756 29.184 81.9743 29.568C82.2729 29.9307 82.4223 30.368 82.4223 30.88C82.4223 31.3707 82.3263 31.7973 82.1343 32.16C81.9636 32.5013 81.7396 32.7893 81.4623 33.024C81.2916 32.9173 81.0356 32.8107 80.6943 32.704C80.3529 32.576 79.9796 32.4693 79.5743 32.384C79.1689 32.2773 78.7529 32.192 78.3263 32.128C77.9209 32.064 77.5476 32.032 77.2063 32.032C76.5023 32.032 75.9583 32.1173 75.5743 32.288C75.1903 32.4373 74.9983 32.6827 74.9983 33.024C74.9983 33.2587 75.1049 33.4507 75.3183 33.6C75.5316 33.7493 75.9369 33.888 76.5343 34.016L77.5263 34.24C79.5743 34.7093 81.0249 35.36 81.8783 36.192C82.7529 37.0027 83.1903 38.0587 83.1903 39.36ZM97.7625 43.968C97.5278 44.0107 97.1758 44.064 96.7065 44.128C96.2585 44.2133 95.7998 44.256 95.3305 44.256C94.8612 44.256 94.4345 44.224 94.0505 44.16C93.6878 44.096 93.3785 43.968 93.1225 43.776C92.8665 43.584 92.6638 43.328 92.5145 43.008C92.3865 42.6667 92.3225 42.2293 92.3225 41.696V23.136C92.5572 23.0933 92.8985 23.04 93.3465 22.976C93.8158 22.8907 94.2852 22.848 94.7545 22.848C95.2238 22.848 95.6398 22.88 96.0025 22.944C96.3865 23.008 96.7065 23.136 96.9625 23.328C97.2185 23.52 97.4105 23.7867 97.5385 24.128C97.6878 24.448 97.7625 24.8747 97.7625 25.408V43.968ZM109.419 44.512C108.161 44.512 106.987 44.3413 105.899 44C104.833 43.6373 103.894 43.104 103.083 42.4C102.294 41.696 101.665 40.8107 101.195 39.744C100.747 38.6773 100.523 37.4293 100.523 36C100.523 34.592 100.747 33.3867 101.195 32.384C101.665 31.36 102.273 30.528 103.019 29.888C103.766 29.2267 104.619 28.7467 105.579 28.448C106.539 28.128 107.521 27.968 108.523 27.968C109.654 27.968 110.678 28.1387 111.595 28.48C112.534 28.8213 113.334 29.2907 113.995 29.888C114.678 30.4853 115.201 31.2 115.563 32.032C115.947 32.864 116.139 33.7707 116.139 34.752C116.139 35.4773 115.937 36.032 115.531 36.416C115.126 36.8 114.561 37.0453 113.835 37.152L105.931 38.336C106.166 39.04 106.646 39.5733 107.371 39.936C108.097 40.2773 108.929 40.448 109.867 40.448C110.742 40.448 111.563 40.3413 112.331 40.128C113.121 39.8933 113.761 39.6267 114.251 39.328C114.593 39.5413 114.881 39.84 115.115 40.224C115.35 40.608 115.467 41.0133 115.467 41.44C115.467 42.4 115.019 43.1147 114.123 43.584C113.441 43.9467 112.673 44.192 111.819 44.32C110.966 44.448 110.166 44.512 109.419 44.512ZM108.523 31.936C108.011 31.936 107.563 32.0213 107.179 32.192C106.817 32.3627 106.518 32.5867 106.283 32.864C106.049 33.12 105.867 33.4187 105.739 33.76C105.633 34.08 105.569 34.4107 105.547 34.752L111.019 33.856C110.955 33.4293 110.721 33.0027 110.315 32.576C109.91 32.1493 109.313 31.936 108.523 31.936ZM125.414 40.544C125.776 40.544 126.171 40.512 126.598 40.448C127.046 40.3627 127.376 40.256 127.59 40.128V37.568L125.286 37.76C124.688 37.8027 124.198 37.9307 123.814 38.144C123.43 38.3573 123.238 38.6773 123.238 39.104C123.238 39.5307 123.398 39.8827 123.718 40.16C124.059 40.416 124.624 40.544 125.414 40.544ZM125.158 27.968C126.31 27.968 127.355 28.0853 128.294 28.32C129.254 28.5547 130.064 28.9173 130.726 29.408C131.408 29.8773 131.931 30.4853 132.294 31.232C132.656 31.9573 132.838 32.8213 132.838 33.824V40.992C132.838 41.5467 132.678 42.0053 132.358 42.368C132.059 42.7093 131.696 43.008 131.27 43.264C129.883 44.096 127.931 44.512 125.414 44.512C124.283 44.512 123.259 44.4053 122.342 44.192C121.446 43.9787 120.667 43.6587 120.006 43.232C119.366 42.8053 118.864 42.2613 118.502 41.6C118.16 40.9387 117.99 40.1707 117.99 39.296C117.99 37.824 118.427 36.6933 119.302 35.904C120.176 35.1147 121.531 34.624 123.366 34.432L127.558 33.984V33.76C127.558 33.1413 127.28 32.704 126.726 32.448C126.192 32.1707 125.414 32.032 124.39 32.032C123.579 32.032 122.79 32.1173 122.022 32.288C121.254 32.4587 120.56 32.672 119.942 32.928C119.664 32.736 119.43 32.448 119.238 32.064C119.046 31.6587 118.95 31.2427 118.95 30.816C118.95 30.2613 119.078 29.824 119.334 29.504C119.611 29.1627 120.027 28.8747 120.582 28.64C121.2 28.4053 121.926 28.2347 122.758 28.128C123.611 28.0213 124.411 27.968 125.158 27.968ZM141.604 43.968C141.391 44.032 141.049 44.096 140.58 44.16C140.132 44.224 139.663 44.256 139.172 44.256C138.703 44.256 138.276 44.224 137.892 44.16C137.529 44.096 137.22 43.968 136.964 43.776C136.708 43.584 136.505 43.328 136.356 43.008C136.228 42.6667 136.164 42.2293 136.164 41.696V32.096C136.164 31.6053 136.249 31.1893 136.42 30.848C136.612 30.4853 136.879 30.1653 137.22 29.888C137.561 29.6107 137.977 29.3653 138.468 29.152C138.98 28.9173 139.524 28.7147 140.1 28.544C140.676 28.3733 141.273 28.2453 141.892 28.16C142.511 28.0533 143.129 28 143.748 28C144.772 28 145.583 28.2027 146.18 28.608C146.777 28.992 147.076 29.632 147.076 30.528C147.076 30.8267 147.033 31.1253 146.948 31.424C146.863 31.7013 146.756 31.9573 146.628 32.192C146.18 32.192 145.721 32.2133 145.252 32.256C144.783 32.2987 144.324 32.3627 143.876 32.448C143.428 32.5333 143.001 32.6293 142.596 32.736C142.212 32.8213 141.881 32.928 141.604 33.056V43.968ZM158.864 34.144C158.864 33.4827 158.672 33.0027 158.288 32.704C157.925 32.384 157.424 32.224 156.784 32.224C156.357 32.224 155.93 32.2773 155.504 32.384C155.098 32.4907 154.746 32.6507 154.448 32.864V43.968C154.234 44.032 153.893 44.096 153.424 44.16C152.976 44.224 152.506 44.256 152.016 44.256C151.546 44.256 151.12 44.224 150.736 44.16C150.373 44.096 150.064 43.968 149.808 43.776C149.552 43.584 149.349 43.328 149.2 43.008C149.072 42.6667 149.008 42.2293 149.008 41.696V32.096C149.008 31.52 149.125 31.0507 149.36 30.688C149.616 30.3253 149.957 29.9947 150.384 29.696C151.109 29.184 152.016 28.768 153.104 28.448C154.213 28.128 155.44 27.968 156.784 27.968C159.194 27.968 161.05 28.5013 162.352 29.568C163.653 30.6133 164.304 32.0747 164.304 33.952V43.968C164.09 44.032 163.749 44.096 163.28 44.16C162.832 44.224 162.362 44.256 161.872 44.256C161.402 44.256 160.976 44.224 160.592 44.16C160.229 44.096 159.92 43.968 159.664 43.776C159.408 43.584 159.205 43.328 159.056 43.008C158.928 42.6667 158.864 42.2293 158.864 41.696V34.144ZM179.606 43.968C179.372 44.0107 179.02 44.064 178.55 44.128C178.102 44.2133 177.644 44.256 177.174 44.256C176.705 44.256 176.278 44.224 175.894 44.16C175.532 44.096 175.222 43.968 174.966 43.776C174.71 43.584 174.508 43.328 174.358 43.008C174.23 42.6667 174.166 42.2293 174.166 41.696V23.136C174.401 23.0933 174.742 23.04 175.19 22.976C175.66 22.8907 176.129 22.848 176.598 22.848C177.068 22.848 177.484 22.88 177.846 22.944C178.23 23.008 178.55 23.136 178.806 23.328C179.062 23.52 179.254 23.7867 179.382 24.128C179.532 24.448 179.606 24.8747 179.606 25.408V43.968ZM191.263 44.512C190.004 44.512 188.831 44.3413 187.743 44C186.676 43.6373 185.738 43.104 184.927 42.4C184.138 41.696 183.508 40.8107 183.039 39.744C182.591 38.6773 182.367 37.4293 182.367 36C182.367 34.592 182.591 33.3867 183.039 32.384C183.508 31.36 184.116 30.528 184.863 29.888C185.61 29.2267 186.463 28.7467 187.423 28.448C188.383 28.128 189.364 27.968 190.367 27.968C191.498 27.968 192.522 28.1387 193.439 28.48C194.378 28.8213 195.178 29.2907 195.839 29.888C196.522 30.4853 197.044 31.2 197.407 32.032C197.791 32.864 197.983 33.7707 197.983 34.752C197.983 35.4773 197.78 36.032 197.375 36.416C196.97 36.8 196.404 37.0453 195.679 37.152L187.775 38.336C188.01 39.04 188.49 39.5733 189.215 39.936C189.94 40.2773 190.772 40.448 191.711 40.448C192.586 40.448 193.407 40.3413 194.175 40.128C194.964 39.8933 195.604 39.6267 196.095 39.328C196.436 39.5413 196.724 39.84 196.959 40.224C197.194 40.608 197.311 41.0133 197.311 41.44C197.311 42.4 196.863 43.1147 195.967 43.584C195.284 43.9467 194.516 44.192 193.663 44.32C192.81 44.448 192.01 44.512 191.263 44.512ZM190.367 31.936C189.855 31.936 189.407 32.0213 189.023 32.192C188.66 32.3627 188.362 32.5867 188.127 32.864C187.892 33.12 187.711 33.4187 187.583 33.76C187.476 34.08 187.412 34.4107 187.391 34.752L192.863 33.856C192.799 33.4293 192.564 33.0027 192.159 32.576C191.754 32.1493 191.156 31.936 190.367 31.936ZM206.042 38.656C206.042 39.2107 206.212 39.6053 206.554 39.84C206.916 40.0747 207.418 40.192 208.058 40.192C208.378 40.192 208.708 40.1707 209.05 40.128C209.391 40.064 209.69 39.9893 209.946 39.904C210.138 40.1387 210.298 40.4053 210.426 40.704C210.575 40.9813 210.65 41.3227 210.65 41.728C210.65 42.5387 210.34 43.2 209.722 43.712C209.124 44.224 208.058 44.48 206.522 44.48C204.644 44.48 203.194 44.0533 202.17 43.2C201.167 42.3467 200.666 40.96 200.666 39.04V25.344C200.9 25.28 201.231 25.216 201.658 25.152C202.106 25.0667 202.575 25.024 203.066 25.024C204.004 25.024 204.73 25.1947 205.242 25.536C205.775 25.856 206.042 26.5493 206.042 27.616V29.664H210.234C210.362 29.8987 210.479 30.1973 210.586 30.56C210.714 30.9013 210.778 31.2853 210.778 31.712C210.778 32.4587 210.607 33.0027 210.266 33.344C209.946 33.664 209.508 33.824 208.954 33.824H206.042V38.656ZM218.854 38.656C218.854 39.2107 219.025 39.6053 219.366 39.84C219.729 40.0747 220.23 40.192 220.87 40.192C221.19 40.192 221.521 40.1707 221.862 40.128C222.203 40.064 222.502 39.9893 222.758 39.904C222.95 40.1387 223.11 40.4053 223.238 40.704C223.387 40.9813 223.462 41.3227 223.462 41.728C223.462 42.5387 223.153 43.2 222.534 43.712C221.937 44.224 220.87 44.48 219.334 44.48C217.457 44.48 216.006 44.0533 214.982 43.2C213.979 42.3467 213.478 40.96 213.478 39.04V25.344C213.713 25.28 214.043 25.216 214.47 25.152C214.918 25.0667 215.387 25.024 215.878 25.024C216.817 25.024 217.542 25.1947 218.054 25.536C218.587 25.856 218.854 26.5493 218.854 27.616V29.664H223.046C223.174 29.8987 223.291 30.1973 223.398 30.56C223.526 30.9013 223.59 31.2853 223.59 31.712C223.59 32.4587 223.419 33.0027 223.078 33.344C222.758 33.664 222.321 33.824 221.766 33.824H218.854V38.656ZM234.263 44.512C233.004 44.512 231.831 44.3413 230.743 44C229.676 43.6373 228.738 43.104 227.927 42.4C227.138 41.696 226.508 40.8107 226.039 39.744C225.591 38.6773 225.367 37.4293 225.367 36C225.367 34.592 225.591 33.3867 226.039 32.384C226.508 31.36 227.116 30.528 227.863 29.888C228.61 29.2267 229.463 28.7467 230.423 28.448C231.383 28.128 232.364 27.968 233.367 27.968C234.498 27.968 235.522 28.1387 236.439 28.48C237.378 28.8213 238.178 29.2907 238.839 29.888C239.522 30.4853 240.044 31.2 240.407 32.032C240.791 32.864 240.983 33.7707 240.983 34.752C240.983 35.4773 240.78 36.032 240.375 36.416C239.97 36.8 239.404 37.0453 238.679 37.152L230.775 38.336C231.01 39.04 231.49 39.5733 232.215 39.936C232.94 40.2773 233.772 40.448 234.711 40.448C235.586 40.448 236.407 40.3413 237.175 40.128C237.964 39.8933 238.604 39.6267 239.095 39.328C239.436 39.5413 239.724 39.84 239.959 40.224C240.194 40.608 240.311 41.0133 240.311 41.44C240.311 42.4 239.863 43.1147 238.967 43.584C238.284 43.9467 237.516 44.192 236.663 44.32C235.81 44.448 235.01 44.512 234.263 44.512ZM233.367 31.936C232.855 31.936 232.407 32.0213 232.023 32.192C231.66 32.3627 231.362 32.5867 231.127 32.864C230.892 33.12 230.711 33.4187 230.583 33.76C230.476 34.08 230.412 34.4107 230.391 34.752L235.863 33.856C235.799 33.4293 235.564 33.0027 235.159 32.576C234.754 32.1493 234.156 31.936 233.367 31.936ZM249.042 43.968C248.828 44.032 248.487 44.096 248.018 44.16C247.57 44.224 247.1 44.256 246.61 44.256C246.14 44.256 245.714 44.224 245.33 44.16C244.967 44.096 244.658 43.968 244.402 43.776C244.146 43.584 243.943 43.328 243.794 43.008C243.666 42.6667 243.602 42.2293 243.602 41.696V32.096C243.602 31.6053 243.687 31.1893 243.858 30.848C244.05 30.4853 244.316 30.1653 244.658 29.888C244.999 29.6107 245.415 29.3653 245.906 29.152C246.418 28.9173 246.962 28.7147 247.538 28.544C248.114 28.3733 248.711 28.2453 249.33 28.16C249.948 28.0533 250.567 28 251.186 28C252.21 28 253.02 28.2027 253.618 28.608C254.215 28.992 254.514 29.632 254.514 30.528C254.514 30.8267 254.471 31.1253 254.386 31.424C254.3 31.7013 254.194 31.9573 254.066 32.192C253.618 32.192 253.159 32.2133 252.69 32.256C252.22 32.2987 251.762 32.3627 251.314 32.448C250.866 32.5333 250.439 32.6293 250.034 32.736C249.65 32.8213 249.319 32.928 249.042 33.056V43.968ZM269.878 39.36C269.878 40.9813 269.27 42.2507 268.054 43.168C266.838 44.0853 265.046 44.544 262.678 44.544C261.782 44.544 260.95 44.48 260.182 44.352C259.414 44.224 258.752 44.032 258.198 43.776C257.664 43.4987 257.238 43.1573 256.918 42.752C256.619 42.3467 256.47 41.8667 256.47 41.312C256.47 40.8 256.576 40.3733 256.79 40.032C257.003 39.6693 257.259 39.3707 257.558 39.136C258.176 39.4773 258.88 39.7867 259.67 40.064C260.48 40.32 261.408 40.448 262.454 40.448C263.115 40.448 263.616 40.352 263.958 40.16C264.32 39.968 264.502 39.712 264.502 39.392C264.502 39.0933 264.374 38.8587 264.118 38.688C263.862 38.5173 263.435 38.3787 262.838 38.272L261.878 38.08C260.022 37.7173 258.635 37.152 257.718 36.384C256.822 35.5947 256.374 34.4747 256.374 33.024C256.374 32.2347 256.544 31.52 256.886 30.88C257.227 30.24 257.707 29.7067 258.326 29.28C258.944 28.8533 259.68 28.5227 260.534 28.288C261.408 28.0533 262.368 27.936 263.414 27.936C264.203 27.936 264.939 28 265.622 28.128C266.326 28.2347 266.934 28.4053 267.446 28.64C267.958 28.8747 268.363 29.184 268.662 29.568C268.96 29.9307 269.11 30.368 269.11 30.88C269.11 31.3707 269.014 31.7973 268.822 32.16C268.651 32.5013 268.427 32.7893 268.15 33.024C267.979 32.9173 267.723 32.8107 267.382 32.704C267.04 32.576 266.667 32.4693 266.262 32.384C265.856 32.2773 265.44 32.192 265.014 32.128C264.608 32.064 264.235 32.032 263.894 32.032C263.19 32.032 262.646 32.1173 262.262 32.288C261.878 32.4373 261.686 32.6827 261.686 33.024C261.686 33.2587 261.792 33.4507 262.006 33.6C262.219 33.7493 262.624 33.888 263.222 34.016L264.214 34.24C266.262 34.7093 267.712 35.36 268.566 36.192C269.44 37.0027 269.878 38.0587 269.878 39.36ZM285.57 40.544C285.933 40.544 286.327 40.512 286.754 40.448C287.202 40.3627 287.533 40.256 287.746 40.128V37.568L285.442 37.76C284.845 37.8027 284.354 37.9307 283.97 38.144C283.586 38.3573 283.394 38.6773 283.394 39.104C283.394 39.5307 283.554 39.8827 283.874 40.16C284.215 40.416 284.781 40.544 285.57 40.544ZM285.314 27.968C286.466 27.968 287.511 28.0853 288.45 28.32C289.41 28.5547 290.221 28.9173 290.882 29.408C291.565 29.8773 292.087 30.4853 292.45 31.232C292.813 31.9573 292.994 32.8213 292.994 33.824V40.992C292.994 41.5467 292.834 42.0053 292.514 42.368C292.215 42.7093 291.853 43.008 291.426 43.264C290.039 44.096 288.087 44.512 285.57 44.512C284.439 44.512 283.415 44.4053 282.498 44.192C281.602 43.9787 280.823 43.6587 280.162 43.232C279.522 42.8053 279.021 42.2613 278.658 41.6C278.317 40.9387 278.146 40.1707 278.146 39.296C278.146 37.824 278.583 36.6933 279.458 35.904C280.333 35.1147 281.687 34.624 283.522 34.432L287.714 33.984V33.76C287.714 33.1413 287.437 32.704 286.882 32.448C286.349 32.1707 285.57 32.032 284.546 32.032C283.735 32.032 282.946 32.1173 282.178 32.288C281.41 32.4587 280.717 32.672 280.098 32.928C279.821 32.736 279.586 32.448 279.394 32.064C279.202 31.6587 279.106 31.2427 279.106 30.816C279.106 30.2613 279.234 29.824 279.49 29.504C279.767 29.1627 280.183 28.8747 280.738 28.64C281.357 28.4053 282.082 28.2347 282.914 28.128C283.767 28.0213 284.567 27.968 285.314 27.968ZM306.176 34.144C306.176 33.4827 305.984 33.0027 305.6 32.704C305.238 32.384 304.736 32.224 304.096 32.224C303.67 32.224 303.243 32.2773 302.816 32.384C302.411 32.4907 302.059 32.6507 301.76 32.864V43.968C301.547 44.032 301.206 44.096 300.736 44.16C300.288 44.224 299.819 44.256 299.328 44.256C298.859 44.256 298.432 44.224 298.048 44.16C297.686 44.096 297.376 43.968 297.12 43.776C296.864 43.584 296.662 43.328 296.512 43.008C296.384 42.6667 296.32 42.2293 296.32 41.696V32.096C296.32 31.52 296.438 31.0507 296.672 30.688C296.928 30.3253 297.27 29.9947 297.696 29.696C298.422 29.184 299.328 28.768 300.416 28.448C301.526 28.128 302.752 27.968 304.096 27.968C306.507 27.968 308.363 28.5013 309.664 29.568C310.966 30.6133 311.616 32.0747 311.616 33.952V43.968C311.403 44.032 311.062 44.096 310.592 44.16C310.144 44.224 309.675 44.256 309.184 44.256C308.715 44.256 308.288 44.224 307.904 44.16C307.542 44.096 307.232 43.968 306.976 43.776C306.72 43.584 306.518 43.328 306.368 43.008C306.24 42.6667 306.176 42.2293 306.176 41.696V34.144ZM314.305 36.224C314.305 34.816 314.518 33.6 314.945 32.576C315.371 31.5307 315.958 30.6667 316.705 29.984C317.473 29.3013 318.358 28.8 319.361 28.48C320.385 28.1387 321.483 27.968 322.657 27.968C323.083 27.968 323.499 28.0107 323.905 28.096C324.31 28.16 324.641 28.2453 324.897 28.352V23.168C325.11 23.104 325.451 23.04 325.921 22.976C326.39 22.8907 326.87 22.848 327.361 22.848C327.83 22.848 328.246 22.88 328.609 22.944C328.993 23.008 329.313 23.136 329.569 23.328C329.825 23.52 330.017 23.7867 330.145 24.128C330.273 24.448 330.337 24.8747 330.337 25.408V40.576C330.337 41.5787 329.867 42.3787 328.929 42.976C328.31 43.3813 327.51 43.7333 326.529 44.032C325.547 44.352 324.417 44.512 323.137 44.512C321.75 44.512 320.502 44.32 319.393 43.936C318.305 43.552 317.377 42.9973 316.609 42.272C315.862 41.5467 315.286 40.6827 314.881 39.68C314.497 38.656 314.305 37.504 314.305 36.224ZM323.393 32.224C322.241 32.224 321.355 32.5547 320.737 33.216C320.118 33.8773 319.809 34.88 319.809 36.224C319.809 37.5467 320.097 38.5493 320.673 39.232C321.249 39.8933 322.081 40.224 323.169 40.224C323.553 40.224 323.894 40.1707 324.193 40.064C324.513 39.936 324.758 39.7973 324.929 39.648V32.608C324.502 32.352 323.99 32.224 323.393 32.224ZM92.0905 94.52C91.7918 94.776 91.3865 94.9787 90.8745 95.128C90.3625 95.2987 89.7545 95.384 89.0505 95.384C88.1758 95.384 87.4185 95.256 86.7785 95C86.1385 94.7653 85.7118 94.424 85.4985 93.976C85.2638 93.464 84.9865 92.6533 84.6665 91.544C84.3678 90.4347 84.0692 89.2187 83.7705 87.896C83.4718 86.5733 83.1838 85.2293 82.9065 83.864C82.6505 82.4987 82.4478 81.2933 82.2985 80.248C82.5972 79.9493 82.9918 79.6933 83.4825 79.48C83.9945 79.2453 84.5492 79.128 85.1465 79.128C85.8932 79.128 86.5012 79.2987 86.9705 79.64C87.4612 79.96 87.7598 80.5253 87.8665 81.336C88.0798 82.9573 88.2612 84.3013 88.4105 85.368C88.5598 86.4133 88.6772 87.2773 88.7625 87.96C88.8692 88.6213 88.9438 89.1333 88.9865 89.496C89.0505 89.8373 89.1038 90.1147 89.1465 90.328H89.2745C89.3385 89.9867 89.4452 89.496 89.5945 88.856C89.7652 88.1947 89.9572 87.448 90.1705 86.616C90.3838 85.784 90.6078 84.888 90.8425 83.928C91.0772 82.9467 91.3118 81.976 91.5465 81.016C91.9732 80.7813 92.3892 80.6 92.7945 80.472C93.2212 80.344 93.7438 80.28 94.3625 80.28C95.1092 80.28 95.7492 80.3973 96.2825 80.632C96.8158 80.8667 97.1572 81.2293 97.3065 81.72C97.5625 82.6587 97.8078 83.576 98.0425 84.472C98.2772 85.3467 98.4905 86.168 98.6825 86.936C98.8745 87.6827 99.0452 88.3547 99.1945 88.952C99.3438 89.528 99.4505 89.9867 99.5145 90.328H99.6745C99.9092 88.6853 100.133 86.9787 100.347 85.208C100.581 83.4373 100.795 81.6347 100.987 79.8C101.371 79.5653 101.776 79.3947 102.203 79.288C102.629 79.1813 103.056 79.128 103.483 79.128C104.229 79.128 104.848 79.288 105.339 79.608C105.829 79.928 106.075 80.4827 106.075 81.272C106.075 81.6133 106.021 82.1253 105.915 82.808C105.808 83.4907 105.669 84.2587 105.499 85.112C105.328 85.9653 105.125 86.8613 104.891 87.8C104.677 88.7387 104.453 89.6453 104.219 90.52C104.005 91.3947 103.792 92.184 103.579 92.888C103.387 93.592 103.216 94.136 103.067 94.52C102.768 94.776 102.309 94.9787 101.691 95.128C101.072 95.2987 100.411 95.384 99.7065 95.384C97.9145 95.384 96.8585 94.936 96.5385 94.04C96.4105 93.656 96.2505 93.176 96.0585 92.6C95.8665 92.0027 95.6638 91.352 95.4505 90.648C95.2372 89.944 95.0345 89.2187 94.8425 88.472C94.6505 87.704 94.4905 86.968 94.3625 86.264C94.2132 87.0107 94.0318 87.7893 93.8185 88.6C93.6052 89.3893 93.3812 90.168 93.1465 90.936C92.9332 91.6827 92.7305 92.376 92.5385 93.016C92.3465 93.6347 92.1972 94.136 92.0905 94.52ZM124.635 87.224C124.635 88.5467 124.432 89.7307 124.027 90.776C123.622 91.8 123.046 92.664 122.299 93.368C121.574 94.072 120.699 94.6053 119.675 94.968C118.651 95.3307 117.51 95.512 116.251 95.512C114.992 95.512 113.851 95.32 112.827 94.936C111.803 94.552 110.918 94.008 110.171 93.304C109.446 92.5787 108.88 91.704 108.475 90.68C108.07 89.656 107.867 88.504 107.867 87.224C107.867 85.9653 108.07 84.824 108.475 83.8C108.88 82.776 109.446 81.912 110.171 81.208C110.918 80.4827 111.803 79.928 112.827 79.544C113.851 79.16 114.992 78.968 116.251 78.968C117.51 78.968 118.651 79.1707 119.675 79.576C120.699 79.96 121.574 80.5147 122.299 81.24C123.046 81.944 123.622 82.808 124.027 83.832C124.432 84.856 124.635 85.9867 124.635 87.224ZM113.435 87.224C113.435 88.5253 113.68 89.528 114.171 90.232C114.683 90.9147 115.387 91.256 116.283 91.256C117.179 91.256 117.862 90.904 118.331 90.2C118.822 89.496 119.067 88.504 119.067 87.224C119.067 85.944 118.822 84.9627 118.331 84.28C117.84 83.576 117.147 83.224 116.251 83.224C115.355 83.224 114.662 83.576 114.171 84.28C113.68 84.9627 113.435 85.944 113.435 87.224ZM132.729 94.968C132.516 95.032 132.174 95.096 131.705 95.16C131.257 95.224 130.788 95.256 130.297 95.256C129.828 95.256 129.401 95.224 129.017 95.16C128.654 95.096 128.345 94.968 128.089 94.776C127.833 94.584 127.63 94.328 127.481 94.008C127.353 93.6667 127.289 93.2293 127.289 92.696V83.096C127.289 82.6053 127.374 82.1893 127.545 81.848C127.737 81.4853 128.004 81.1653 128.345 80.888C128.686 80.6107 129.102 80.3653 129.593 80.152C130.105 79.9173 130.649 79.7147 131.225 79.544C131.801 79.3733 132.398 79.2453 133.017 79.16C133.636 79.0533 134.254 79 134.873 79C135.897 79 136.708 79.2027 137.305 79.608C137.902 79.992 138.201 80.632 138.201 81.528C138.201 81.8267 138.158 82.1253 138.073 82.424C137.988 82.7013 137.881 82.9573 137.753 83.192C137.305 83.192 136.846 83.2133 136.377 83.256C135.908 83.2987 135.449 83.3627 135.001 83.448C134.553 83.5333 134.126 83.6293 133.721 83.736C133.337 83.8213 133.006 83.928 132.729 84.056V94.968ZM139.18 87.224C139.18 85.816 139.393 84.6 139.82 83.576C140.246 82.5307 140.833 81.6667 141.58 80.984C142.348 80.3013 143.233 79.8 144.236 79.48C145.26 79.1387 146.358 78.968 147.532 78.968C147.958 78.968 148.374 79.0107 148.78 79.096C149.185 79.16 149.516 79.2453 149.772 79.352V74.168C149.985 74.104 150.326 74.04 150.796 73.976C151.265 73.8907 151.745 73.848 152.236 73.848C152.705 73.848 153.121 73.88 153.484 73.944C153.868 74.008 154.188 74.136 154.444 74.328C154.7 74.52 154.892 74.7867 155.02 75.128C155.148 75.448 155.212 75.8747 155.212 76.408V91.576C155.212 92.5787 154.742 93.3787 153.804 93.976C153.185 94.3813 152.385 94.7333 151.404 95.032C150.422 95.352 149.292 95.512 148.012 95.512C146.625 95.512 145.377 95.32 144.268 94.936C143.18 94.552 142.252 93.9973 141.484 93.272C140.737 92.5467 140.161 91.6827 139.756 90.68C139.372 89.656 139.18 88.504 139.18 87.224ZM148.268 83.224C147.116 83.224 146.23 83.5547 145.612 84.216C144.993 84.8773 144.684 85.88 144.684 87.224C144.684 88.5467 144.972 89.5493 145.548 90.232C146.124 90.8933 146.956 91.224 148.044 91.224C148.428 91.224 148.769 91.1707 149.068 91.064C149.388 90.936 149.633 90.7973 149.804 90.648V83.608C149.377 83.352 148.865 83.224 148.268 83.224ZM171.722 90.36C171.722 91.9813 171.114 93.2507 169.898 94.168C168.682 95.0853 166.89 95.544 164.522 95.544C163.626 95.544 162.794 95.48 162.026 95.352C161.258 95.224 160.596 95.032 160.042 94.776C159.508 94.4987 159.082 94.1573 158.762 93.752C158.463 93.3467 158.314 92.8667 158.314 92.312C158.314 91.8 158.42 91.3733 158.634 91.032C158.847 90.6693 159.103 90.3707 159.402 90.136C160.02 90.4773 160.724 90.7867 161.514 91.064C162.324 91.32 163.252 91.448 164.298 91.448C164.959 91.448 165.46 91.352 165.802 91.16C166.164 90.968 166.345 90.712 166.345 90.392C166.345 90.0933 166.218 89.8587 165.962 89.688C165.706 89.5173 165.279 89.3787 164.682 89.272L163.722 89.08C161.866 88.7173 160.479 88.152 159.562 87.384C158.666 86.5947 158.218 85.4747 158.218 84.024C158.218 83.2347 158.388 82.52 158.73 81.88C159.071 81.24 159.551 80.7067 160.17 80.28C160.788 79.8533 161.524 79.5227 162.378 79.288C163.252 79.0533 164.212 78.936 165.258 78.936C166.047 78.936 166.783 79 167.466 79.128C168.17 79.2347 168.778 79.4053 169.29 79.64C169.802 79.8747 170.207 80.184 170.506 80.568C170.804 80.9307 170.954 81.368 170.954 81.88C170.954 82.3707 170.858 82.7973 170.666 83.16C170.495 83.5013 170.271 83.7893 169.994 84.024C169.823 83.9173 169.567 83.8107 169.226 83.704C168.884 83.576 168.511 83.4693 168.106 83.384C167.7 83.2773 167.284 83.192 166.858 83.128C166.452 83.064 166.079 83.032 165.738 83.032C165.034 83.032 164.49 83.1173 164.106 83.288C163.722 83.4373 163.53 83.6827 163.53 84.024C163.53 84.2587 163.636 84.4507 163.85 84.6C164.063 84.7493 164.468 84.888 165.066 85.016L166.058 85.24C168.106 85.7093 169.556 86.36 170.41 87.192C171.284 88.0027 171.722 89.0587 171.722 90.36ZM188.982 95.512C187.723 95.512 186.55 95.3413 185.462 95C184.395 94.6373 183.456 94.104 182.646 93.4C181.856 92.696 181.227 91.8107 180.758 90.744C180.31 89.6773 180.086 88.4293 180.086 87C180.086 85.592 180.31 84.3867 180.758 83.384C181.227 82.36 181.835 81.528 182.582 80.888C183.328 80.2267 184.182 79.7467 185.142 79.448C186.102 79.128 187.083 78.968 188.086 78.968C189.216 78.968 190.24 79.1387 191.158 79.48C192.096 79.8213 192.896 80.2907 193.558 80.888C194.24 81.4853 194.763 82.2 195.126 83.032C195.51 83.864 195.702 84.7707 195.702 85.752C195.702 86.4773 195.499 87.032 195.094 87.416C194.688 87.8 194.123 88.0453 193.398 88.152L185.494 89.336C185.728 90.04 186.208 90.5733 186.934 90.936C187.659 91.2773 188.491 91.448 189.43 91.448C190.304 91.448 191.126 91.3413 191.894 91.128C192.683 90.8933 193.323 90.6267 193.814 90.328C194.155 90.5413 194.443 90.84 194.678 91.224C194.912 91.608 195.03 92.0133 195.03 92.44C195.03 93.4 194.582 94.1147 193.686 94.584C193.003 94.9467 192.235 95.192 191.382 95.32C190.528 95.448 189.728 95.512 188.982 95.512ZM188.086 82.936C187.574 82.936 187.126 83.0213 186.742 83.192C186.379 83.3627 186.08 83.5867 185.846 83.864C185.611 84.12 185.43 84.4187 185.302 84.76C185.195 85.08 185.131 85.4107 185.11 85.752L190.582 84.856C190.518 84.4293 190.283 84.0027 189.878 83.576C189.472 83.1493 188.875 82.936 188.086 82.936ZM204.976 91.544C205.339 91.544 205.734 91.512 206.16 91.448C206.608 91.3627 206.939 91.256 207.152 91.128V88.568L204.848 88.76C204.251 88.8027 203.76 88.9307 203.376 89.144C202.992 89.3573 202.8 89.6773 202.8 90.104C202.8 90.5307 202.96 90.8827 203.28 91.16C203.622 91.416 204.187 91.544 204.976 91.544ZM204.72 78.968C205.872 78.968 206.918 79.0853 207.856 79.32C208.816 79.5547 209.627 79.9173 210.288 80.408C210.971 80.8773 211.494 81.4853 211.856 82.232C212.219 82.9573 212.4 83.8213 212.4 84.824V91.992C212.4 92.5467 212.24 93.0053 211.92 93.368C211.622 93.7093 211.259 94.008 210.832 94.264C209.446 95.096 207.494 95.512 204.976 95.512C203.846 95.512 202.822 95.4053 201.904 95.192C201.008 94.9787 200.23 94.6587 199.568 94.232C198.928 93.8053 198.427 93.2613 198.064 92.6C197.723 91.9387 197.552 91.1707 197.552 90.296C197.552 88.824 197.99 87.6933 198.864 86.904C199.739 86.1147 201.094 85.624 202.928 85.432L207.12 84.984V84.76C207.12 84.1413 206.843 83.704 206.288 83.448C205.755 83.1707 204.976 83.032 203.952 83.032C203.142 83.032 202.352 83.1173 201.584 83.288C200.816 83.4587 200.123 83.672 199.504 83.928C199.227 83.736 198.992 83.448 198.8 83.064C198.608 82.6587 198.512 82.2427 198.512 81.816C198.512 81.2613 198.64 80.824 198.896 80.504C199.174 80.1627 199.59 79.8747 200.144 79.64C200.763 79.4053 201.488 79.2347 202.32 79.128C203.174 79.0213 203.974 78.968 204.72 78.968ZM228.847 90.36C228.847 91.9813 228.239 93.2507 227.023 94.168C225.807 95.0853 224.015 95.544 221.647 95.544C220.751 95.544 219.919 95.48 219.151 95.352C218.383 95.224 217.721 95.032 217.167 94.776C216.633 94.4987 216.207 94.1573 215.887 93.752C215.588 93.3467 215.439 92.8667 215.439 92.312C215.439 91.8 215.545 91.3733 215.759 91.032C215.972 90.6693 216.228 90.3707 216.527 90.136C217.145 90.4773 217.849 90.7867 218.639 91.064C219.449 91.32 220.377 91.448 221.423 91.448C222.084 91.448 222.585 91.352 222.927 91.16C223.289 90.968 223.47 90.712 223.47 90.392C223.47 90.0933 223.343 89.8587 223.087 89.688C222.831 89.5173 222.404 89.3787 221.807 89.272L220.847 89.08C218.991 88.7173 217.604 88.152 216.687 87.384C215.791 86.5947 215.343 85.4747 215.343 84.024C215.343 83.2347 215.513 82.52 215.855 81.88C216.196 81.24 216.676 80.7067 217.295 80.28C217.913 79.8533 218.649 79.5227 219.503 79.288C220.377 79.0533 221.337 78.936 222.383 78.936C223.172 78.936 223.908 79 224.591 79.128C225.295 79.2347 225.903 79.4053 226.415 79.64C226.927 79.8747 227.332 80.184 227.631 80.568C227.929 80.9307 228.079 81.368 228.079 81.88C228.079 82.3707 227.983 82.7973 227.791 83.16C227.62 83.5013 227.396 83.7893 227.119 84.024C226.948 83.9173 226.692 83.8107 226.351 83.704C226.009 83.576 225.636 83.4693 225.231 83.384C224.825 83.2773 224.409 83.192 223.983 83.128C223.577 83.064 223.204 83.032 222.863 83.032C222.159 83.032 221.615 83.1173 221.231 83.288C220.847 83.4373 220.655 83.6827 220.655 84.024C220.655 84.2587 220.761 84.4507 220.975 84.6C221.188 84.7493 221.593 84.888 222.191 85.016L223.183 85.24C225.231 85.7093 226.681 86.36 227.535 87.192C228.409 88.0027 228.847 89.0587 228.847 90.36ZM231.349 75.128C231.349 74.3173 231.615 73.6347 232.149 73.08C232.703 72.5253 233.429 72.248 234.325 72.248C235.221 72.248 235.935 72.5253 236.469 73.08C237.023 73.6347 237.301 74.3173 237.301 75.128C237.301 75.9387 237.023 76.6213 236.469 77.176C235.935 77.7307 235.221 78.008 234.325 78.008C233.429 78.008 232.703 77.7307 232.149 77.176C231.615 76.6213 231.349 75.9387 231.349 75.128ZM237.045 94.968C236.81 95.0107 236.458 95.064 235.989 95.128C235.541 95.2133 235.082 95.256 234.613 95.256C234.143 95.256 233.717 95.224 233.333 95.16C232.97 95.096 232.661 94.968 232.405 94.776C232.149 94.584 231.946 94.328 231.797 94.008C231.669 93.6667 231.605 93.2293 231.605 92.696V79.672C231.839 79.6293 232.181 79.576 232.629 79.512C233.098 79.4267 233.567 79.384 234.036 79.384C234.506 79.384 234.922 79.416 235.285 79.48C235.669 79.544 235.989 79.672 236.245 79.864C236.501 80.056 236.693 80.3227 236.821 80.664C236.97 80.984 237.045 81.4107 237.045 81.944V94.968ZM246.044 94.968C245.809 95.0107 245.457 95.064 244.988 95.128C244.54 95.2133 244.081 95.256 243.612 95.256C243.142 95.256 242.716 95.224 242.332 95.16C241.969 95.096 241.66 94.968 241.404 94.776C241.148 94.584 240.945 94.328 240.796 94.008C240.668 93.6667 240.604 93.2293 240.604 92.696V74.136C240.838 74.0933 241.18 74.04 241.628 73.976C242.097 73.8907 242.566 73.848 243.036 73.848C243.505 73.848 243.921 73.88 244.284 73.944C244.668 74.008 244.988 74.136 245.244 74.328C245.5 74.52 245.692 74.7867 245.82 75.128C245.969 75.448 246.044 75.8747 246.044 76.408V94.968ZM251.909 91.032C251.674 90.4987 251.418 89.9013 251.141 89.24C250.885 88.5787 250.607 87.8213 250.309 86.968C250.031 86.1147 249.733 85.144 249.413 84.056C249.114 82.9467 248.794 81.6773 248.453 80.248C248.751 79.9493 249.146 79.6933 249.637 79.48C250.149 79.2453 250.703 79.128 251.301 79.128C252.047 79.128 252.666 79.288 253.157 79.608C253.647 79.9067 254.01 80.4827 254.245 81.336L256.773 90.136H256.901C257.157 89.4107 257.402 88.6213 257.637 87.768C257.893 86.9147 258.138 86.04 258.373 85.144C258.607 84.2267 258.821 83.32 259.013 82.424C259.226 81.5067 259.407 80.6107 259.557 79.736C260.325 79.3307 261.167 79.128 262.085 79.128C262.831 79.128 263.45 79.288 263.941 79.608C264.431 79.928 264.677 80.4827 264.677 81.272C264.677 81.848 264.602 82.52 264.453 83.288C264.303 84.0347 264.101 84.8347 263.845 85.688C263.61 86.5413 263.322 87.4267 262.981 88.344C262.661 89.24 262.319 90.1253 261.957 91C261.594 91.8747 261.221 92.7067 260.837 93.496C260.453 94.264 260.079 94.9573 259.717 95.576C259.119 96.6213 258.565 97.4747 258.053 98.136C257.541 98.7973 257.05 99.3093 256.581 99.672C256.111 100.056 255.642 100.312 255.173 100.44C254.703 100.589 254.213 100.664 253.701 100.664C252.805 100.664 252.079 100.397 251.525 99.864C250.97 99.3307 250.639 98.6373 250.533 97.784C251.215 97.2507 251.898 96.6533 252.581 95.992C253.263 95.352 253.882 94.6907 254.437 94.008C254.074 93.9013 253.679 93.656 253.253 93.272C252.847 92.8667 252.399 92.12 251.909 91.032Z" fill="#FFCA3A"/>
</svg>
