<svg width="357" height="173" viewBox="0 0 357 173" fill="none" xmlns="http://www.w3.org/2000/svg">
<path d="M39.9935 44.096C39.0762 44.096 38.3508 43.8293 37.8175 43.296C37.2842 42.7627 37.0175 42.0373 37.0175 41.12V24.576C37.2522 24.5333 37.6255 24.48 38.1375 24.416C38.6495 24.3307 39.1402 24.288 39.6095 24.288C40.1002 24.288 40.5268 24.3307 40.8895 24.416C41.2735 24.48 41.5935 24.608 41.8495 24.8C42.1055 24.992 42.2975 25.2587 42.4255 25.6C42.5535 25.9413 42.6175 26.3893 42.6175 26.944V39.584H49.9455C50.0948 39.8187 50.2335 40.1387 50.3615 40.544C50.4895 40.928 50.5535 41.3333 50.5535 41.76C50.5535 42.6133 50.3722 43.2213 50.0095 43.584C49.6468 43.9253 49.1668 44.096 48.5695 44.096H39.9935ZM68.7913 36.224C68.7913 37.5467 68.5886 38.7307 68.1833 39.776C67.7779 40.8 67.2019 41.664 66.4553 42.368C65.7299 43.072 64.8553 43.6053 63.8313 43.968C62.8073 44.3307 61.6659 44.512 60.4073 44.512C59.1486 44.512 58.0073 44.32 56.9833 43.936C55.9593 43.552 55.0739 43.008 54.3273 42.304C53.6019 41.5787 53.0366 40.704 52.6313 39.68C52.2259 38.656 52.0233 37.504 52.0233 36.224C52.0233 34.9653 52.2259 33.824 52.6313 32.8C53.0366 31.776 53.6019 30.912 54.3273 30.208C55.0739 29.4827 55.9593 28.928 56.9833 28.544C58.0073 28.16 59.1486 27.968 60.4073 27.968C61.6659 27.968 62.8073 28.1707 63.8313 28.576C64.8553 28.96 65.7299 29.5147 66.4553 30.24C67.2019 30.944 67.7779 31.808 68.1833 32.832C68.5886 33.856 68.7913 34.9867 68.7913 36.224ZM57.5913 36.224C57.5913 37.5253 57.8366 38.528 58.3273 39.232C58.8393 39.9147 59.5433 40.256 60.4392 40.256C61.3353 40.256 62.0179 39.904 62.4873 39.2C62.9779 38.496 63.2233 37.504 63.2233 36.224C63.2233 34.944 62.9779 33.9627 62.4873 33.28C61.9966 32.576 61.3033 32.224 60.4073 32.224C59.5113 32.224 58.8179 32.576 58.3273 33.28C57.8366 33.9627 57.5913 34.944 57.5913 36.224ZM76.8853 38.656C76.8853 39.2107 77.0559 39.6053 77.3973 39.84C77.7599 40.0747 78.2613 40.192 78.9013 40.192C79.2213 40.192 79.5519 40.1707 79.8933 40.128C80.2346 40.064 80.5333 39.9893 80.7893 39.904C80.9813 40.1387 81.1413 40.4053 81.2693 40.704C81.4186 40.9813 81.4933 41.3227 81.4933 41.728C81.4933 42.5387 81.1839 43.2 80.5653 43.712C79.9679 44.224 78.9013 44.48 77.3653 44.48C75.4879 44.48 74.0373 44.0533 73.0133 43.2C72.0106 42.3467 71.5093 40.96 71.5093 39.04V25.344C71.7439 25.28 72.0746 25.216 72.5013 25.152C72.9493 25.0667 73.4186 25.024 73.9093 25.024C74.8479 25.024 75.5733 25.1947 76.0853 25.536C76.6186 25.856 76.8853 26.5493 76.8853 27.616V29.664H81.0773C81.2053 29.8987 81.3226 30.1973 81.4293 30.56C81.5573 30.9013 81.6213 31.2853 81.6213 31.712C81.6213 32.4587 81.4506 33.0027 81.1093 33.344C80.7893 33.664 80.3519 33.824 79.7973 33.824H76.8853V38.656ZM97.3778 39.36C97.3778 40.9813 96.7698 42.2507 95.5538 43.168C94.3378 44.0853 92.5458 44.544 90.1778 44.544C89.2818 44.544 88.4498 44.48 87.6818 44.352C86.9138 44.224 86.2524 44.032 85.6978 43.776C85.1644 43.4987 84.7378 43.1573 84.4178 42.752C84.1191 42.3467 83.9698 41.8667 83.9698 41.312C83.9698 40.8 84.0764 40.3733 84.2898 40.032C84.5031 39.6693 84.7591 39.3707 85.0578 39.136C85.6764 39.4773 86.3804 39.7867 87.1698 40.064C87.9804 40.32 88.9084 40.448 89.9538 40.448C90.6151 40.448 91.1164 40.352 91.4578 40.16C91.8204 39.968 92.0017 39.712 92.0017 39.392C92.0017 39.0933 91.8738 38.8587 91.6178 38.688C91.3618 38.5173 90.9351 38.3787 90.3378 38.272L89.3778 38.08C87.5218 37.7173 86.1351 37.152 85.2178 36.384C84.3218 35.5947 83.8738 34.4747 83.8738 33.024C83.8738 32.2347 84.0444 31.52 84.3858 30.88C84.7271 30.24 85.2071 29.7067 85.8258 29.28C86.4444 28.8533 87.1804 28.5227 88.0338 28.288C88.9084 28.0533 89.8684 27.936 90.9138 27.936C91.7031 27.936 92.4391 28 93.1218 28.128C93.8258 28.2347 94.4338 28.4053 94.9458 28.64C95.4578 28.8747 95.8631 29.184 96.1618 29.568C96.4604 29.9307 96.6098 30.368 96.6098 30.88C96.6098 31.3707 96.5138 31.7973 96.3218 32.16C96.1511 32.5013 95.9271 32.7893 95.6498 33.024C95.4791 32.9173 95.2231 32.8107 94.8818 32.704C94.5404 32.576 94.1671 32.4693 93.7618 32.384C93.3564 32.2773 92.9404 32.192 92.5138 32.128C92.1084 32.064 91.7351 32.032 91.3938 32.032C90.6898 32.032 90.1458 32.1173 89.7618 32.288C89.3778 32.4373 89.1858 32.6827 89.1858 33.024C89.1858 33.2587 89.2924 33.4507 89.5058 33.6C89.7191 33.7493 90.1244 33.888 90.7218 34.016L91.7138 34.24C93.7618 34.7093 95.2124 35.36 96.0658 36.192C96.9404 37.0027 97.3778 38.0587 97.3778 39.36ZM122.51 36.224C122.51 37.5467 122.307 38.7307 121.902 39.776C121.497 40.8 120.921 41.664 120.174 42.368C119.449 43.072 118.574 43.6053 117.55 43.968C116.526 44.3307 115.385 44.512 114.126 44.512C112.867 44.512 111.726 44.32 110.702 43.936C109.678 43.552 108.793 43.008 108.046 42.304C107.321 41.5787 106.755 40.704 106.35 39.68C105.945 38.656 105.742 37.504 105.742 36.224C105.742 34.9653 105.945 33.824 106.35 32.8C106.755 31.776 107.321 30.912 108.046 30.208C108.793 29.4827 109.678 28.928 110.702 28.544C111.726 28.16 112.867 27.968 114.126 27.968C115.385 27.968 116.526 28.1707 117.55 28.576C118.574 28.96 119.449 29.5147 120.174 30.24C120.921 30.944 121.497 31.808 121.902 32.832C122.307 33.856 122.51 34.9867 122.51 36.224ZM111.31 36.224C111.31 37.5253 111.555 38.528 112.046 39.232C112.558 39.9147 113.262 40.256 114.158 40.256C115.054 40.256 115.737 39.904 116.206 39.2C116.697 38.496 116.942 37.504 116.942 36.224C116.942 34.944 116.697 33.9627 116.206 33.28C115.715 32.576 115.022 32.224 114.126 32.224C113.23 32.224 112.537 32.576 112.046 33.28C111.555 33.9627 111.31 34.944 111.31 36.224ZM125.228 28.448C125.228 27.36 125.409 26.432 125.772 25.664C126.156 24.8747 126.668 24.2347 127.308 23.744C127.948 23.232 128.695 22.8587 129.548 22.624C130.423 22.3893 131.351 22.272 132.332 22.272C133.911 22.272 135.073 22.4853 135.82 22.912C136.567 23.3173 136.94 24.0213 136.94 25.024C136.94 25.4507 136.844 25.8347 136.652 26.176C136.481 26.5173 136.289 26.7733 136.076 26.944C135.671 26.8373 135.244 26.752 134.796 26.688C134.369 26.6027 133.868 26.56 133.292 26.56C132.375 26.56 131.66 26.72 131.148 27.04C130.636 27.3387 130.38 27.872 130.38 28.64V29.664H135.628C135.756 29.8987 135.873 30.1973 135.98 30.56C136.108 30.9013 136.172 31.2853 136.172 31.712C136.172 32.4587 136.001 33.0027 135.66 33.344C135.34 33.664 134.903 33.824 134.348 33.824H130.668V43.968C130.455 44.032 130.113 44.096 129.644 44.16C129.196 44.224 128.727 44.256 128.236 44.256C127.767 44.256 127.34 44.224 126.956 44.16C126.593 44.096 126.284 43.968 126.028 43.776C125.772 43.584 125.569 43.328 125.42 43.008C125.292 42.6667 125.228 42.2293 125.228 41.696V28.448ZM145.384 28.448C145.384 27.36 145.566 26.432 145.928 25.664C146.312 24.8747 146.824 24.2347 147.464 23.744C148.104 23.232 148.851 22.8587 149.704 22.624C150.579 22.3893 151.507 22.272 152.488 22.272C154.067 22.272 155.23 22.4853 155.976 22.912C156.723 23.3173 157.096 24.0213 157.096 25.024C157.096 25.4507 157 25.8347 156.808 26.176C156.638 26.5173 156.446 26.7733 156.232 26.944C155.827 26.8373 155.4 26.752 154.952 26.688C154.526 26.6027 154.024 26.56 153.448 26.56C152.531 26.56 151.816 26.72 151.304 27.04C150.792 27.3387 150.536 27.872 150.536 28.64V29.664H155.784C155.912 29.8987 156.03 30.1973 156.136 30.56C156.264 30.9013 156.328 31.2853 156.328 31.712C156.328 32.4587 156.158 33.0027 155.816 33.344C155.496 33.664 155.059 33.824 154.504 33.824H150.824V43.968C150.611 44.032 150.27 44.096 149.8 44.16C149.352 44.224 148.883 44.256 148.392 44.256C147.923 44.256 147.496 44.224 147.112 44.16C146.75 44.096 146.44 43.968 146.184 43.776C145.928 43.584 145.726 43.328 145.576 43.008C145.448 42.6667 145.384 42.2293 145.384 41.696V28.448ZM158.758 28.672C158.971 28.608 159.302 28.544 159.75 28.48C160.219 28.416 160.699 28.384 161.19 28.384C161.659 28.384 162.075 28.416 162.438 28.48C162.822 28.544 163.142 28.672 163.398 28.864C163.654 29.056 163.846 29.3227 163.974 29.664C164.123 29.984 164.198 30.4107 164.198 30.944V37.824C164.198 38.6987 164.411 39.328 164.838 39.712C165.264 40.0747 165.883 40.256 166.694 40.256C167.184 40.256 167.579 40.2133 167.878 40.128C168.198 40.0427 168.443 39.9573 168.614 39.872V28.672C168.827 28.608 169.158 28.544 169.606 28.48C170.075 28.416 170.555 28.384 171.046 28.384C171.515 28.384 171.931 28.416 172.294 28.48C172.678 28.544 172.998 28.672 173.254 28.864C173.51 29.056 173.702 29.3227 173.83 29.664C173.979 29.984 174.054 30.4107 174.054 30.944V40.672C174.054 41.7387 173.606 42.5387 172.71 43.072C171.963 43.5413 171.067 43.8933 170.022 44.128C168.998 44.384 167.878 44.512 166.662 44.512C165.51 44.512 164.443 44.384 163.462 44.128C162.502 43.872 161.67 43.4773 160.966 42.944C160.262 42.4107 159.718 41.728 159.334 40.896C158.95 40.0427 158.758 39.0187 158.758 37.824V28.672ZM187.239 34.144C187.239 33.4827 187.047 33.0027 186.663 32.704C186.3 32.384 185.799 32.224 185.159 32.224C184.732 32.224 184.305 32.2773 183.879 32.384C183.473 32.4907 183.121 32.6507 182.823 32.864V43.968C182.609 44.032 182.268 44.096 181.799 44.16C181.351 44.224 180.881 44.256 180.391 44.256C179.921 44.256 179.495 44.224 179.111 44.16C178.748 44.096 178.439 43.968 178.183 43.776C177.927 43.584 177.724 43.328 177.575 43.008C177.447 42.6667 177.383 42.2293 177.383 41.696V32.096C177.383 31.52 177.5 31.0507 177.735 30.688C177.991 30.3253 178.332 29.9947 178.759 29.696C179.484 29.184 180.391 28.768 181.479 28.448C182.588 28.128 183.815 27.968 185.159 27.968C187.569 27.968 189.425 28.5013 190.727 29.568C192.028 30.6133 192.679 32.0747 192.679 33.952V43.968C192.465 44.032 192.124 44.096 191.655 44.16C191.207 44.224 190.737 44.256 190.247 44.256C189.777 44.256 189.351 44.224 188.967 44.16C188.604 44.096 188.295 43.968 188.039 43.776C187.783 43.584 187.58 43.328 187.431 43.008C187.303 42.6667 187.239 42.2293 187.239 41.696V34.144ZM207.981 43.968C207.747 44.0107 207.395 44.064 206.925 44.128C206.477 44.2133 206.019 44.256 205.549 44.256C205.08 44.256 204.653 44.224 204.269 44.16C203.907 44.096 203.597 43.968 203.341 43.776C203.085 43.584 202.883 43.328 202.733 43.008C202.605 42.6667 202.541 42.2293 202.541 41.696V23.136C202.776 23.0933 203.117 23.04 203.565 22.976C204.035 22.8907 204.504 22.848 204.973 22.848C205.443 22.848 205.859 22.88 206.221 22.944C206.605 23.008 206.925 23.136 207.181 23.328C207.437 23.52 207.629 23.7867 207.757 24.128C207.907 24.448 207.981 24.8747 207.981 25.408V43.968ZM219.638 44.512C218.379 44.512 217.206 44.3413 216.118 44C215.051 43.6373 214.113 43.104 213.302 42.4C212.513 41.696 211.883 40.8107 211.414 39.744C210.966 38.6773 210.742 37.4293 210.742 36C210.742 34.592 210.966 33.3867 211.414 32.384C211.883 31.36 212.491 30.528 213.238 29.888C213.985 29.2267 214.838 28.7467 215.798 28.448C216.758 28.128 217.739 27.968 218.742 27.968C219.873 27.968 220.897 28.1387 221.814 28.48C222.753 28.8213 223.553 29.2907 224.214 29.888C224.897 30.4853 225.419 31.2 225.782 32.032C226.166 32.864 226.358 33.7707 226.358 34.752C226.358 35.4773 226.155 36.032 225.75 36.416C225.345 36.8 224.779 37.0453 224.054 37.152L216.15 38.336C216.385 39.04 216.865 39.5733 217.59 39.936C218.315 40.2773 219.147 40.448 220.086 40.448C220.961 40.448 221.782 40.3413 222.55 40.128C223.339 39.8933 223.979 39.6267 224.47 39.328C224.811 39.5413 225.099 39.84 225.334 40.224C225.569 40.608 225.686 41.0133 225.686 41.44C225.686 42.4 225.238 43.1147 224.342 43.584C223.659 43.9467 222.891 44.192 222.038 44.32C221.185 44.448 220.385 44.512 219.638 44.512ZM218.742 31.936C218.23 31.936 217.782 32.0213 217.398 32.192C217.035 32.3627 216.737 32.5867 216.502 32.864C216.267 33.12 216.086 33.4187 215.958 33.76C215.851 34.08 215.787 34.4107 215.766 34.752L221.238 33.856C221.174 33.4293 220.939 33.0027 220.534 32.576C220.129 32.1493 219.531 31.936 218.742 31.936ZM235.633 40.544C235.995 40.544 236.39 40.512 236.817 40.448C237.265 40.3627 237.595 40.256 237.809 40.128V37.568L235.505 37.76C234.907 37.8027 234.417 37.9307 234.033 38.144C233.649 38.3573 233.457 38.6773 233.457 39.104C233.457 39.5307 233.617 39.8827 233.937 40.16C234.278 40.416 234.843 40.544 235.633 40.544ZM235.377 27.968C236.529 27.968 237.574 28.0853 238.513 28.32C239.473 28.5547 240.283 28.9173 240.945 29.408C241.627 29.8773 242.15 30.4853 242.513 31.232C242.875 31.9573 243.057 32.8213 243.057 33.824V40.992C243.057 41.5467 242.897 42.0053 242.577 42.368C242.278 42.7093 241.915 43.008 241.489 43.264C240.102 44.096 238.15 44.512 235.633 44.512C234.502 44.512 233.478 44.4053 232.561 44.192C231.665 43.9787 230.886 43.6587 230.225 43.232C229.585 42.8053 229.083 42.2613 228.721 41.6C228.379 40.9387 228.209 40.1707 228.209 39.296C228.209 37.824 228.646 36.6933 229.521 35.904C230.395 35.1147 231.75 34.624 233.585 34.432L237.777 33.984V33.76C237.777 33.1413 237.499 32.704 236.945 32.448C236.411 32.1707 235.633 32.032 234.609 32.032C233.798 32.032 233.009 32.1173 232.241 32.288C231.473 32.4587 230.779 32.672 230.161 32.928C229.883 32.736 229.649 32.448 229.457 32.064C229.265 31.6587 229.169 31.2427 229.169 30.816C229.169 30.2613 229.297 29.824 229.553 29.504C229.83 29.1627 230.246 28.8747 230.801 28.64C231.419 28.4053 232.145 28.2347 232.977 28.128C233.83 28.0213 234.63 27.968 235.377 27.968ZM251.823 43.968C251.609 44.032 251.268 44.096 250.799 44.16C250.351 44.224 249.881 44.256 249.391 44.256C248.921 44.256 248.495 44.224 248.111 44.16C247.748 44.096 247.439 43.968 247.183 43.776C246.927 43.584 246.724 43.328 246.575 43.008C246.447 42.6667 246.383 42.2293 246.383 41.696V32.096C246.383 31.6053 246.468 31.1893 246.639 30.848C246.831 30.4853 247.097 30.1653 247.439 29.888C247.78 29.6107 248.196 29.3653 248.687 29.152C249.199 28.9173 249.743 28.7147 250.319 28.544C250.895 28.3733 251.492 28.2453 252.111 28.16C252.729 28.0533 253.348 28 253.967 28C254.991 28 255.801 28.2027 256.399 28.608C256.996 28.992 257.295 29.632 257.295 30.528C257.295 30.8267 257.252 31.1253 257.167 31.424C257.081 31.7013 256.975 31.9573 256.847 32.192C256.399 32.192 255.94 32.2133 255.471 32.256C255.001 32.2987 254.543 32.3627 254.095 32.448C253.647 32.5333 253.22 32.6293 252.815 32.736C252.431 32.8213 252.1 32.928 251.823 33.056V43.968ZM269.083 34.144C269.083 33.4827 268.891 33.0027 268.507 32.704C268.144 32.384 267.643 32.224 267.003 32.224C266.576 32.224 266.149 32.2773 265.723 32.384C265.317 32.4907 264.965 32.6507 264.667 32.864V43.968C264.453 44.032 264.112 44.096 263.643 44.16C263.195 44.224 262.725 44.256 262.235 44.256C261.765 44.256 261.339 44.224 260.955 44.16C260.592 44.096 260.283 43.968 260.027 43.776C259.771 43.584 259.568 43.328 259.419 43.008C259.291 42.6667 259.227 42.2293 259.227 41.696V32.096C259.227 31.52 259.344 31.0507 259.579 30.688C259.835 30.3253 260.176 29.9947 260.603 29.696C261.328 29.184 262.235 28.768 263.323 28.448C264.432 28.128 265.659 27.968 267.003 27.968C269.413 27.968 271.269 28.5013 272.571 29.568C273.872 30.6133 274.523 32.0747 274.523 33.952V43.968C274.309 44.032 273.968 44.096 273.499 44.16C273.051 44.224 272.581 44.256 272.091 44.256C271.621 44.256 271.195 44.224 270.811 44.16C270.448 44.096 270.139 43.968 269.883 43.776C269.627 43.584 269.424 43.328 269.275 43.008C269.147 42.6667 269.083 42.2293 269.083 41.696V34.144ZM277.755 24.128C277.755 23.3173 278.021 22.6347 278.555 22.08C279.109 21.5253 279.835 21.248 280.731 21.248C281.627 21.248 282.341 21.5253 282.875 22.08C283.429 22.6347 283.707 23.3173 283.707 24.128C283.707 24.9387 283.429 25.6213 282.875 26.176C282.341 26.7307 281.627 27.008 280.731 27.008C279.835 27.008 279.109 26.7307 278.555 26.176C278.021 25.6213 277.755 24.9387 277.755 24.128ZM283.451 43.968C283.216 44.0107 282.864 44.064 282.395 44.128C281.947 44.2133 281.488 44.256 281.019 44.256C280.549 44.256 280.123 44.224 279.739 44.16C279.376 44.096 279.067 43.968 278.811 43.776C278.555 43.584 278.352 43.328 278.203 43.008C278.075 42.6667 278.011 42.2293 278.011 41.696V28.672C278.245 28.6293 278.587 28.576 279.035 28.512C279.504 28.4267 279.973 28.384 280.443 28.384C280.912 28.384 281.328 28.416 281.691 28.48C282.075 28.544 282.395 28.672 282.651 28.864C282.907 29.056 283.099 29.3227 283.227 29.664C283.376 29.984 283.451 30.4107 283.451 30.944V43.968ZM296.77 34.144C296.77 33.4827 296.578 33.0027 296.194 32.704C295.831 32.384 295.33 32.224 294.69 32.224C294.263 32.224 293.837 32.2773 293.41 32.384C293.005 32.4907 292.653 32.6507 292.354 32.864V43.968C292.141 44.032 291.799 44.096 291.33 44.16C290.882 44.224 290.413 44.256 289.922 44.256C289.453 44.256 289.026 44.224 288.642 44.16C288.279 44.096 287.97 43.968 287.714 43.776C287.458 43.584 287.255 43.328 287.106 43.008C286.978 42.6667 286.914 42.2293 286.914 41.696V32.096C286.914 31.52 287.031 31.0507 287.266 30.688C287.522 30.3253 287.863 29.9947 288.29 29.696C289.015 29.184 289.922 28.768 291.01 28.448C292.119 28.128 293.346 27.968 294.69 27.968C297.101 27.968 298.957 28.5013 300.258 29.568C301.559 30.6133 302.21 32.0747 302.21 33.952V43.968C301.997 44.032 301.655 44.096 301.186 44.16C300.738 44.224 300.269 44.256 299.778 44.256C299.309 44.256 298.882 44.224 298.498 44.16C298.135 44.096 297.826 43.968 297.57 43.776C297.314 43.584 297.111 43.328 296.962 43.008C296.834 42.6667 296.77 42.2293 296.77 41.696V34.144ZM313.154 27.968C314.37 27.968 315.469 28.128 316.45 28.448C317.453 28.7467 318.296 29.1413 318.978 29.632C319.405 29.9307 319.736 30.2613 319.97 30.624C320.226 30.9867 320.354 31.456 320.354 32.032V43.232C320.354 44.3627 320.141 45.3333 319.714 46.144C319.288 46.976 318.701 47.6587 317.954 48.192C317.229 48.7467 316.365 49.152 315.362 49.408C314.381 49.664 313.325 49.792 312.194 49.792C310.253 49.792 308.728 49.5253 307.618 48.992C306.509 48.48 305.954 47.6373 305.954 46.464C305.954 45.9733 306.05 45.536 306.242 45.152C306.456 44.7893 306.69 44.512 306.946 44.32C307.565 44.6613 308.258 44.9493 309.026 45.184C309.816 45.4187 310.626 45.536 311.458 45.536C312.61 45.536 313.528 45.344 314.21 44.96C314.893 44.576 315.234 43.9573 315.234 43.104V42.592C314.36 42.976 313.293 43.168 312.034 43.168C311.074 43.168 310.157 43.0293 309.282 42.752C308.429 42.4533 307.672 42.0053 307.01 41.408C306.37 40.7893 305.848 40 305.442 39.04C305.058 38.08 304.866 36.9387 304.866 35.616C304.866 34.3147 305.069 33.184 305.474 32.224C305.901 31.264 306.477 30.4747 307.202 29.856C307.949 29.216 308.824 28.7467 309.826 28.448C310.85 28.128 311.96 27.968 313.154 27.968ZM315.138 32.608C314.989 32.5227 314.765 32.4373 314.466 32.352C314.189 32.2667 313.837 32.224 313.41 32.224C312.365 32.224 311.576 32.5227 311.042 33.12C310.53 33.696 310.274 34.528 310.274 35.616C310.274 36.8533 310.53 37.7493 311.042 38.304C311.576 38.8373 312.248 39.104 313.058 39.104C313.933 39.104 314.626 38.9013 315.138 38.496V32.608ZM64.909 90.36C64.909 91.9813 64.301 93.2507 63.085 94.168C61.869 95.0853 60.077 95.544 57.709 95.544C56.813 95.544 55.981 95.48 55.213 95.352C54.445 95.224 53.7837 95.032 53.229 94.776C52.6957 94.4987 52.269 94.1573 51.949 93.752C51.6503 93.3467 51.501 92.8667 51.501 92.312C51.501 91.8 51.6077 91.3733 51.821 91.032C52.0343 90.6693 52.2903 90.3707 52.589 90.136C53.2077 90.4773 53.9117 90.7867 54.701 91.064C55.5117 91.32 56.4397 91.448 57.485 91.448C58.1463 91.448 58.6477 91.352 58.989 91.16C59.3517 90.968 59.533 90.712 59.533 90.392C59.533 90.0933 59.405 89.8587 59.149 89.688C58.893 89.5173 58.4663 89.3787 57.869 89.272L56.909 89.08C55.053 88.7173 53.6663 88.152 52.749 87.384C51.853 86.5947 51.405 85.4747 51.405 84.024C51.405 83.2347 51.5757 82.52 51.917 81.88C52.2583 81.24 52.7383 80.7067 53.357 80.28C53.9757 79.8533 54.7117 79.5227 55.565 79.288C56.4397 79.0533 57.3997 78.936 58.445 78.936C59.2343 78.936 59.9703 79 60.653 79.128C61.357 79.2347 61.965 79.4053 62.477 79.64C62.989 79.8747 63.3943 80.184 63.693 80.568C63.9917 80.9307 64.141 81.368 64.141 81.88C64.141 82.3707 64.045 82.7973 63.853 83.16C63.6823 83.5013 63.4583 83.7893 63.181 84.024C63.0103 83.9173 62.7543 83.8107 62.413 83.704C62.0717 83.576 61.6983 83.4693 61.293 83.384C60.8877 83.2773 60.4717 83.192 60.045 83.128C59.6397 83.064 59.2663 83.032 58.925 83.032C58.221 83.032 57.677 83.1173 57.293 83.288C56.909 83.4373 56.717 83.6827 56.717 84.024C56.717 84.2587 56.8237 84.4507 57.037 84.6C57.2503 84.7493 57.6557 84.888 58.253 85.016L59.245 85.24C61.293 85.7093 62.7437 86.36 63.597 87.192C64.4717 88.0027 64.909 89.0587 64.909 90.36ZM67.411 75.128C67.411 74.3173 67.6777 73.6347 68.211 73.08C68.7657 72.5253 69.491 72.248 70.387 72.248C71.283 72.248 71.9977 72.5253 72.531 73.08C73.0857 73.6347 73.363 74.3173 73.363 75.128C73.363 75.9387 73.0857 76.6213 72.531 77.176C71.9977 77.7307 71.283 78.008 70.387 78.008C69.491 78.008 68.7657 77.7307 68.211 77.176C67.6777 76.6213 67.411 75.9387 67.411 75.128ZM73.107 94.968C72.8723 95.0107 72.5203 95.064 72.051 95.128C71.603 95.2133 71.1443 95.256 70.675 95.256C70.2057 95.256 69.779 95.224 69.395 95.16C69.0323 95.096 68.723 94.968 68.467 94.776C68.211 94.584 68.0083 94.328 67.859 94.008C67.731 93.6667 67.667 93.2293 67.667 92.696V79.672C67.9017 79.6293 68.243 79.576 68.691 79.512C69.1603 79.4267 69.6297 79.384 70.099 79.384C70.5683 79.384 70.9843 79.416 71.347 79.48C71.731 79.544 72.051 79.672 72.307 79.864C72.563 80.056 72.755 80.3227 72.883 80.664C73.0323 80.984 73.107 81.4107 73.107 81.944V94.968ZM84.0263 78.968C84.9009 78.968 85.7543 79.096 86.5863 79.352C87.4396 79.5867 88.1756 79.9493 88.7943 80.44C89.4343 80.0133 90.1489 79.6613 90.9383 79.384C91.7489 79.1067 92.7196 78.968 93.8503 78.968C94.6609 78.968 95.4503 79.0747 96.2183 79.288C97.0076 79.5013 97.7009 79.8427 98.2983 80.312C98.9169 80.76 99.4076 81.368 99.7703 82.136C100.133 82.8827 100.314 83.8 100.314 84.888V94.968C100.101 95.032 99.7596 95.096 99.2903 95.16C98.8423 95.224 98.3729 95.256 97.8823 95.256C97.4129 95.256 96.9863 95.224 96.6023 95.16C96.2396 95.096 95.9303 94.968 95.6743 94.776C95.4183 94.584 95.2156 94.328 95.0663 94.008C94.9383 93.6667 94.8743 93.2293 94.8743 92.696V85.048C94.8743 84.408 94.6929 83.9493 94.3303 83.672C93.9676 83.3733 93.4769 83.224 92.8583 83.224C92.5596 83.224 92.2396 83.2987 91.8983 83.448C91.5569 83.576 91.3009 83.7147 91.1303 83.864C91.1516 83.9493 91.1623 84.0347 91.1623 84.12C91.1623 84.184 91.1623 84.248 91.1623 84.312V94.968C90.9276 95.032 90.5756 95.096 90.1063 95.16C89.6583 95.224 89.1996 95.256 88.7303 95.256C88.2609 95.256 87.8343 95.224 87.4503 95.16C87.0876 95.096 86.7783 94.968 86.5223 94.776C86.2663 94.584 86.0636 94.328 85.9143 94.008C85.7863 93.6667 85.7223 93.2293 85.7223 92.696V85.048C85.7223 84.408 85.5196 83.9493 85.1143 83.672C84.7303 83.3733 84.2609 83.224 83.7063 83.224C83.3223 83.224 82.9916 83.288 82.7143 83.416C82.4369 83.5227 82.2023 83.6293 82.0103 83.736V94.968C81.7969 95.032 81.4556 95.096 80.9863 95.16C80.5383 95.224 80.0689 95.256 79.5783 95.256C79.1089 95.256 78.6823 95.224 78.2983 95.16C77.9356 95.096 77.6263 94.968 77.3703 94.776C77.1143 94.584 76.9116 94.328 76.7623 94.008C76.6343 93.6667 76.5703 93.2293 76.5703 92.696V83.032C76.5703 82.456 76.6876 81.9973 76.9223 81.656C77.1783 81.3147 77.5196 80.9947 77.9463 80.696C78.6716 80.184 79.5676 79.768 80.6343 79.448C81.7223 79.128 82.8529 78.968 84.0263 78.968ZM110.769 78.968C112.049 78.968 113.233 79.1387 114.321 79.48C115.43 79.8 116.379 80.3013 117.169 80.984C117.958 81.6667 118.577 82.5307 119.025 83.576C119.473 84.6 119.697 85.8267 119.697 87.256C119.697 88.6213 119.505 89.816 119.121 90.84C118.737 91.864 118.193 92.728 117.489 93.432C116.785 94.1147 115.931 94.6267 114.929 94.968C113.947 95.3093 112.849 95.48 111.633 95.48C110.715 95.48 109.862 95.3413 109.073 95.064V100.376C108.859 100.44 108.518 100.504 108.049 100.568C107.579 100.653 107.099 100.696 106.609 100.696C106.139 100.696 105.713 100.664 105.329 100.6C104.966 100.536 104.657 100.408 104.401 100.216C104.145 100.024 103.953 99.7573 103.825 99.416C103.697 99.096 103.633 98.6693 103.633 98.136V82.776C103.633 82.2 103.75 81.7307 103.985 81.368C104.241 81.0053 104.582 80.6747 105.009 80.376C105.67 79.9493 106.491 79.608 107.473 79.352C108.454 79.096 109.553 78.968 110.769 78.968ZM110.833 91.192C113.03 91.192 114.129 89.88 114.129 87.256C114.129 85.8907 113.851 84.8773 113.297 84.216C112.763 83.5547 111.985 83.224 110.961 83.224C110.555 83.224 110.193 83.2773 109.873 83.384C109.553 83.4693 109.275 83.576 109.041 83.704V90.744C109.297 90.872 109.574 90.9787 109.873 91.064C110.171 91.1493 110.491 91.192 110.833 91.192ZM127.888 94.968C127.653 95.0107 127.301 95.064 126.832 95.128C126.384 95.2133 125.925 95.256 125.456 95.256C124.986 95.256 124.56 95.224 124.176 95.16C123.813 95.096 123.504 94.968 123.248 94.776C122.992 94.584 122.789 94.328 122.64 94.008C122.512 93.6667 122.448 93.2293 122.448 92.696V74.136C122.682 74.0933 123.024 74.04 123.472 73.976C123.941 73.8907 124.41 73.848 124.88 73.848C125.349 73.848 125.765 73.88 126.128 73.944C126.512 74.008 126.832 74.136 127.088 74.328C127.344 74.52 127.536 74.7867 127.664 75.128C127.813 75.448 127.888 75.8747 127.888 76.408V94.968ZM139.544 95.512C138.286 95.512 137.112 95.3413 136.024 95C134.958 94.6373 134.019 94.104 133.208 93.4C132.419 92.696 131.79 91.8107 131.32 90.744C130.872 89.6773 130.648 88.4293 130.648 87C130.648 85.592 130.872 84.3867 131.32 83.384C131.79 82.36 132.398 81.528 133.144 80.888C133.891 80.2267 134.744 79.7467 135.704 79.448C136.664 79.128 137.646 78.968 138.648 78.968C139.779 78.968 140.803 79.1387 141.72 79.48C142.659 79.8213 143.459 80.2907 144.12 80.888C144.803 81.4853 145.326 82.2 145.688 83.032C146.072 83.864 146.264 84.7707 146.264 85.752C146.264 86.4773 146.062 87.032 145.656 87.416C145.251 87.8 144.686 88.0453 143.96 88.152L136.056 89.336C136.291 90.04 136.771 90.5733 137.496 90.936C138.222 91.2773 139.054 91.448 139.992 91.448C140.867 91.448 141.688 91.3413 142.456 91.128C143.246 90.8933 143.886 90.6267 144.376 90.328C144.718 90.5413 145.006 90.84 145.24 91.224C145.475 91.608 145.592 92.0133 145.592 92.44C145.592 93.4 145.144 94.1147 144.248 94.584C143.566 94.9467 142.798 95.192 141.944 95.32C141.091 95.448 140.291 95.512 139.544 95.512ZM138.648 82.936C138.136 82.936 137.688 83.0213 137.304 83.192C136.942 83.3627 136.643 83.5867 136.408 83.864C136.174 84.12 135.992 84.4187 135.864 84.76C135.758 85.08 135.694 85.4107 135.672 85.752L141.144 84.856C141.08 84.4293 140.846 84.0027 140.44 83.576C140.035 83.1493 139.438 82.936 138.648 82.936ZM161.945 91.544C162.308 91.544 162.702 91.512 163.129 91.448C163.577 91.3627 163.908 91.256 164.121 91.128V88.568L161.817 88.76C161.22 88.8027 160.729 88.9307 160.345 89.144C159.961 89.3573 159.769 89.6773 159.769 90.104C159.769 90.5307 159.929 90.8827 160.249 91.16C160.59 91.416 161.156 91.544 161.945 91.544ZM161.689 78.968C162.841 78.968 163.886 79.0853 164.825 79.32C165.785 79.5547 166.596 79.9173 167.257 80.408C167.94 80.8773 168.462 81.4853 168.825 82.232C169.188 82.9573 169.369 83.8213 169.369 84.824V91.992C169.369 92.5467 169.209 93.0053 168.889 93.368C168.59 93.7093 168.228 94.008 167.801 94.264C166.414 95.096 164.462 95.512 161.945 95.512C160.814 95.512 159.79 95.4053 158.873 95.192C157.977 94.9787 157.198 94.6587 156.537 94.232C155.897 93.8053 155.396 93.2613 155.033 92.6C154.692 91.9387 154.521 91.1707 154.521 90.296C154.521 88.824 154.958 87.6933 155.833 86.904C156.708 86.1147 158.062 85.624 159.897 85.432L164.089 84.984V84.76C164.089 84.1413 163.812 83.704 163.257 83.448C162.724 83.1707 161.945 83.032 160.921 83.032C160.11 83.032 159.321 83.1173 158.553 83.288C157.785 83.4587 157.092 83.672 156.473 83.928C156.196 83.736 155.961 83.448 155.769 83.064C155.577 82.6587 155.481 82.2427 155.481 81.816C155.481 81.2613 155.609 80.824 155.865 80.504C156.142 80.1627 156.558 79.8747 157.113 79.64C157.732 79.4053 158.457 79.2347 159.289 79.128C160.142 79.0213 160.942 78.968 161.689 78.968ZM178.135 94.968C177.922 95.032 177.581 95.096 177.111 95.16C176.663 95.224 176.194 95.256 175.703 95.256C175.234 95.256 174.807 95.224 174.423 95.16C174.061 95.096 173.751 94.968 173.495 94.776C173.239 94.584 173.037 94.328 172.887 94.008C172.759 93.6667 172.695 93.2293 172.695 92.696V83.096C172.695 82.6053 172.781 82.1893 172.951 81.848C173.143 81.4853 173.41 81.1653 173.751 80.888C174.093 80.6107 174.509 80.3653 174.999 80.152C175.511 79.9173 176.055 79.7147 176.631 79.544C177.207 79.3733 177.805 79.2453 178.423 79.16C179.042 79.0533 179.661 79 180.279 79C181.303 79 182.114 79.2027 182.711 79.608C183.309 79.992 183.607 80.632 183.607 81.528C183.607 81.8267 183.565 82.1253 183.479 82.424C183.394 82.7013 183.287 82.9573 183.159 83.192C182.711 83.192 182.253 83.2133 181.783 83.256C181.314 83.2987 180.855 83.3627 180.407 83.448C179.959 83.5333 179.533 83.6293 179.127 83.736C178.743 83.8213 178.413 83.928 178.135 84.056V94.968ZM185.724 75.128C185.724 74.3173 185.99 73.6347 186.524 73.08C187.078 72.5253 187.804 72.248 188.7 72.248C189.596 72.248 190.31 72.5253 190.844 73.08C191.398 73.6347 191.676 74.3173 191.676 75.128C191.676 75.9387 191.398 76.6213 190.844 77.176C190.31 77.7307 189.596 78.008 188.7 78.008C187.804 78.008 187.078 77.7307 186.524 77.176C185.99 76.6213 185.724 75.9387 185.724 75.128ZM191.42 94.968C191.185 95.0107 190.833 95.064 190.364 95.128C189.916 95.2133 189.457 95.256 188.988 95.256C188.518 95.256 188.092 95.224 187.708 95.16C187.345 95.096 187.036 94.968 186.78 94.776C186.524 94.584 186.321 94.328 186.172 94.008C186.044 93.6667 185.98 93.2293 185.98 92.696V79.672C186.214 79.6293 186.556 79.576 187.004 79.512C187.473 79.4267 187.942 79.384 188.411 79.384C188.881 79.384 189.297 79.416 189.66 79.48C190.044 79.544 190.364 79.672 190.62 79.864C190.876 80.056 191.068 80.3227 191.196 80.664C191.345 80.984 191.42 81.4107 191.42 81.944V94.968ZM200.323 89.656C200.323 90.2107 200.493 90.6053 200.835 90.84C201.197 91.0747 201.699 91.192 202.339 91.192C202.659 91.192 202.989 91.1707 203.331 91.128C203.672 91.064 203.971 90.9893 204.227 90.904C204.419 91.1387 204.579 91.4053 204.707 91.704C204.856 91.9813 204.931 92.3227 204.931 92.728C204.931 93.5387 204.621 94.2 204.003 94.712C203.405 95.224 202.339 95.48 200.803 95.48C198.925 95.48 197.475 95.0533 196.451 94.2C195.448 93.3467 194.947 91.96 194.947 90.04V76.344C195.181 76.28 195.512 76.216 195.939 76.152C196.387 76.0667 196.856 76.024 197.347 76.024C198.285 76.024 199.011 76.1947 199.523 76.536C200.056 76.856 200.323 77.5493 200.323 78.616V80.664H204.515C204.643 80.8987 204.76 81.1973 204.867 81.56C204.995 81.9013 205.059 82.2853 205.059 82.712C205.059 83.4587 204.888 84.0027 204.547 84.344C204.227 84.664 203.789 84.824 203.235 84.824H200.323V89.656ZM223.055 94.968C222.842 95.032 222.501 95.096 222.031 95.16C221.583 95.224 221.114 95.256 220.623 95.256C220.154 95.256 219.727 95.224 219.343 95.16C218.981 95.096 218.671 94.968 218.415 94.776C218.159 94.584 217.957 94.328 217.807 94.008C217.679 93.6667 217.615 93.2293 217.615 92.696V85.592C217.615 84.7173 217.391 84.1093 216.943 83.768C216.517 83.4053 215.983 83.224 215.343 83.224C214.917 83.224 214.511 83.2773 214.127 83.384C213.743 83.4907 213.434 83.6187 213.199 83.768V94.968C212.986 95.032 212.645 95.096 212.175 95.16C211.727 95.224 211.258 95.256 210.767 95.256C210.298 95.256 209.871 95.224 209.487 95.16C209.125 95.096 208.815 94.968 208.559 94.776C208.303 94.584 208.101 94.328 207.951 94.008C207.823 93.6667 207.759 93.2293 207.759 92.696V74.136C207.994 74.0933 208.335 74.04 208.783 73.976C209.253 73.8907 209.722 73.848 210.191 73.848C210.661 73.848 211.077 73.88 211.439 73.944C211.823 74.008 212.143 74.136 212.399 74.328C212.655 74.52 212.847 74.7867 212.975 75.128C213.125 75.448 213.199 75.8747 213.199 76.408V79.544C213.477 79.4373 213.893 79.32 214.447 79.192C215.023 79.0427 215.653 78.968 216.335 78.968C218.447 78.968 220.09 79.5013 221.263 80.568C222.458 81.6133 223.055 83.1813 223.055 85.272V94.968ZM233.87 78.968C234.745 78.968 235.598 79.096 236.43 79.352C237.283 79.5867 238.019 79.9493 238.638 80.44C239.278 80.0133 239.993 79.6613 240.782 79.384C241.593 79.1067 242.563 78.968 243.694 78.968C244.505 78.968 245.294 79.0747 246.062 79.288C246.851 79.5013 247.545 79.8427 248.142 80.312C248.761 80.76 249.251 81.368 249.614 82.136C249.977 82.8827 250.158 83.8 250.158 84.888V94.968C249.945 95.032 249.603 95.096 249.134 95.16C248.686 95.224 248.217 95.256 247.726 95.256C247.257 95.256 246.83 95.224 246.446 95.16C246.083 95.096 245.774 94.968 245.518 94.776C245.262 94.584 245.059 94.328 244.91 94.008C244.782 93.6667 244.718 93.2293 244.718 92.696V85.048C244.718 84.408 244.537 83.9493 244.174 83.672C243.811 83.3733 243.321 83.224 242.702 83.224C242.403 83.224 242.083 83.2987 241.742 83.448C241.401 83.576 241.145 83.7147 240.974 83.864C240.995 83.9493 241.006 84.0347 241.006 84.12C241.006 84.184 241.006 84.248 241.006 84.312V94.968C240.771 95.032 240.419 95.096 239.95 95.16C239.502 95.224 239.043 95.256 238.574 95.256C238.105 95.256 237.678 95.224 237.294 95.16C236.931 95.096 236.622 94.968 236.366 94.776C236.11 94.584 235.907 94.328 235.758 94.008C235.63 93.6667 235.566 93.2293 235.566 92.696V85.048C235.566 84.408 235.363 83.9493 234.958 83.672C234.574 83.3733 234.105 83.224 233.55 83.224C233.166 83.224 232.835 83.288 232.558 83.416C232.281 83.5227 232.046 83.6293 231.854 83.736V94.968C231.641 95.032 231.299 95.096 230.83 95.16C230.382 95.224 229.913 95.256 229.422 95.256C228.953 95.256 228.526 95.224 228.142 95.16C227.779 95.096 227.47 94.968 227.214 94.776C226.958 94.584 226.755 94.328 226.606 94.008C226.478 93.6667 226.414 93.2293 226.414 92.696V83.032C226.414 82.456 226.531 81.9973 226.766 81.656C227.022 81.3147 227.363 80.9947 227.79 80.696C228.515 80.184 229.411 79.768 230.478 79.448C231.566 79.128 232.697 78.968 233.87 78.968ZM261.701 95.512C260.442 95.512 259.269 95.3413 258.181 95C257.114 94.6373 256.175 94.104 255.365 93.4C254.575 92.696 253.946 91.8107 253.477 90.744C253.029 89.6773 252.805 88.4293 252.805 87C252.805 85.592 253.029 84.3867 253.477 83.384C253.946 82.36 254.554 81.528 255.301 80.888C256.047 80.2267 256.901 79.7467 257.861 79.448C258.821 79.128 259.802 78.968 260.805 78.968C261.935 78.968 262.959 79.1387 263.877 79.48C264.815 79.8213 265.615 80.2907 266.277 80.888C266.959 81.4853 267.482 82.2 267.845 83.032C268.229 83.864 268.421 84.7707 268.421 85.752C268.421 86.4773 268.218 87.032 267.812 87.416C267.407 87.8 266.842 88.0453 266.117 88.152L258.213 89.336C258.447 90.04 258.927 90.5733 259.653 90.936C260.378 91.2773 261.21 91.448 262.149 91.448C263.023 91.448 263.845 91.3413 264.613 91.128C265.402 90.8933 266.042 90.6267 266.533 90.328C266.874 90.5413 267.162 90.84 267.397 91.224C267.631 91.608 267.749 92.0133 267.749 92.44C267.749 93.4 267.301 94.1147 266.405 94.584C265.722 94.9467 264.954 95.192 264.101 95.32C263.247 95.448 262.447 95.512 261.701 95.512ZM260.805 82.936C260.293 82.936 259.845 83.0213 259.461 83.192C259.098 83.3627 258.799 83.5867 258.565 83.864C258.33 84.12 258.149 84.4187 258.021 84.76C257.914 85.08 257.85 85.4107 257.829 85.752L263.301 84.856C263.237 84.4293 263.002 84.0027 262.597 83.576C262.191 83.1493 261.594 82.936 260.805 82.936ZM276.479 89.656C276.479 90.2107 276.65 90.6053 276.991 90.84C277.354 91.0747 277.855 91.192 278.495 91.192C278.815 91.192 279.146 91.1707 279.487 91.128C279.828 91.064 280.127 90.9893 280.383 90.904C280.575 91.1387 280.735 91.4053 280.863 91.704C281.012 91.9813 281.087 92.3227 281.087 92.728C281.087 93.5387 280.778 94.2 280.159 94.712C279.562 95.224 278.495 95.48 276.959 95.48C275.082 95.48 273.631 95.0533 272.607 94.2C271.604 93.3467 271.103 91.96 271.103 90.04V76.344C271.338 76.28 271.668 76.216 272.095 76.152C272.543 76.0667 273.012 76.024 273.503 76.024C274.442 76.024 275.167 76.1947 275.679 76.536C276.212 76.856 276.479 77.5493 276.479 78.616V80.664H280.671C280.799 80.8987 280.916 81.1973 281.023 81.56C281.151 81.9013 281.215 82.2853 281.215 82.712C281.215 83.4587 281.044 84.0027 280.703 84.344C280.383 84.664 279.946 84.824 279.391 84.824H276.479V89.656ZM283.724 75.128C283.724 74.3173 283.99 73.6347 284.524 73.08C285.078 72.5253 285.804 72.248 286.7 72.248C287.596 72.248 288.31 72.5253 288.844 73.08C289.398 73.6347 289.676 74.3173 289.676 75.128C289.676 75.9387 289.398 76.6213 288.844 77.176C288.31 77.7307 287.596 78.008 286.7 78.008C285.804 78.008 285.078 77.7307 284.524 77.176C283.99 76.6213 283.724 75.9387 283.724 75.128ZM289.42 94.968C289.185 95.0107 288.833 95.064 288.364 95.128C287.916 95.2133 287.457 95.256 286.988 95.256C286.518 95.256 286.092 95.224 285.708 95.16C285.345 95.096 285.036 94.968 284.78 94.776C284.524 94.584 284.321 94.328 284.172 94.008C284.044 93.6667 283.98 93.2293 283.98 92.696V79.672C284.214 79.6293 284.556 79.576 285.004 79.512C285.473 79.4267 285.942 79.384 286.411 79.384C286.881 79.384 287.297 79.416 287.66 79.48C288.044 79.544 288.364 79.672 288.62 79.864C288.876 80.056 289.068 80.3227 289.196 80.664C289.345 80.984 289.42 81.4107 289.42 81.944V94.968ZM301.651 83.256C301.117 83.256 300.605 83.3413 300.115 83.512C299.645 83.6827 299.229 83.9387 298.867 84.28C298.525 84.6 298.248 85.0053 298.035 85.496C297.821 85.9867 297.715 86.5627 297.715 87.224C297.715 88.5467 298.088 89.5387 298.835 90.2C299.603 90.8613 300.531 91.192 301.619 91.192C302.259 91.192 302.813 91.1173 303.283 90.968C303.752 90.8187 304.168 90.6587 304.531 90.488C304.957 90.7867 305.277 91.1173 305.491 91.48C305.704 91.8213 305.811 92.2373 305.811 92.728C305.811 93.6027 305.395 94.2853 304.563 94.776C303.731 95.2453 302.579 95.48 301.107 95.48C299.763 95.48 298.547 95.288 297.459 94.904C296.371 94.4987 295.432 93.944 294.643 93.24C293.875 92.5147 293.277 91.6507 292.851 90.648C292.424 89.6453 292.211 88.536 292.211 87.32C292.211 85.912 292.435 84.6853 292.883 83.64C293.352 82.5733 293.981 81.6987 294.771 81.016C295.56 80.3333 296.467 79.8213 297.491 79.48C298.536 79.1387 299.635 78.968 300.787 78.968C302.323 78.968 303.507 79.2453 304.339 79.8C305.171 80.3547 305.587 81.0693 305.587 81.944C305.587 82.3493 305.491 82.7333 305.299 83.096C305.107 83.4373 304.883 83.736 304.627 83.992C304.264 83.8213 303.827 83.6613 303.315 83.512C302.803 83.3413 302.248 83.256 301.651 83.256ZM116.198 138.224C116.198 139.547 115.995 140.731 115.59 141.776C115.184 142.8 114.608 143.664 113.862 144.368C113.136 145.072 112.262 145.605 111.238 145.968C110.214 146.331 109.072 146.512 107.814 146.512C106.555 146.512 105.414 146.32 104.39 145.936C103.366 145.552 102.48 145.008 101.734 144.304C101.008 143.579 100.443 142.704 100.038 141.68C99.6322 140.656 99.4295 139.504 99.4295 138.224C99.4295 136.965 99.6322 135.824 100.038 134.8C100.443 133.776 101.008 132.912 101.734 132.208C102.48 131.483 103.366 130.928 104.39 130.544C105.414 130.16 106.555 129.968 107.814 129.968C109.072 129.968 110.214 130.171 111.238 130.576C112.262 130.96 113.136 131.515 113.862 132.24C114.608 132.944 115.184 133.808 115.59 134.832C115.995 135.856 116.198 136.987 116.198 138.224ZM104.998 138.224C104.998 139.525 105.243 140.528 105.734 141.232C106.246 141.915 106.95 142.256 107.845 142.256C108.742 142.256 109.424 141.904 109.894 141.2C110.384 140.496 110.63 139.504 110.63 138.224C110.63 136.944 110.384 135.963 109.894 135.28C109.403 134.576 108.71 134.224 107.814 134.224C106.918 134.224 106.224 134.576 105.734 135.28C105.243 135.963 104.998 136.944 104.998 138.224ZM125.988 129.968C127.268 129.968 128.452 130.139 129.54 130.48C130.649 130.8 131.598 131.301 132.388 131.984C133.177 132.667 133.796 133.531 134.244 134.576C134.692 135.6 134.916 136.827 134.916 138.256C134.916 139.621 134.724 140.816 134.34 141.84C133.956 142.864 133.412 143.728 132.708 144.432C132.004 145.115 131.15 145.627 130.148 145.968C129.166 146.309 128.068 146.48 126.852 146.48C125.934 146.48 125.081 146.341 124.292 146.064V151.376C124.078 151.44 123.737 151.504 123.268 151.568C122.798 151.653 122.318 151.696 121.828 151.696C121.358 151.696 120.932 151.664 120.548 151.6C120.185 151.536 119.876 151.408 119.62 151.216C119.364 151.024 119.172 150.757 119.044 150.416C118.916 150.096 118.852 149.669 118.852 149.136V133.776C118.852 133.2 118.969 132.731 119.204 132.368C119.46 132.005 119.801 131.675 120.228 131.376C120.889 130.949 121.71 130.608 122.692 130.352C123.673 130.096 124.772 129.968 125.988 129.968ZM126.052 142.192C128.249 142.192 129.348 140.88 129.348 138.256C129.348 136.891 129.07 135.877 128.516 135.216C127.982 134.555 127.204 134.224 126.18 134.224C125.774 134.224 125.412 134.277 125.092 134.384C124.772 134.469 124.494 134.576 124.26 134.704V141.744C124.516 141.872 124.793 141.979 125.092 142.064C125.39 142.149 125.71 142.192 126.052 142.192ZM145.794 146.512C144.536 146.512 143.362 146.341 142.274 146C141.208 145.637 140.269 145.104 139.458 144.4C138.669 143.696 138.04 142.811 137.57 141.744C137.122 140.677 136.898 139.429 136.898 138C136.898 136.592 137.122 135.387 137.57 134.384C138.04 133.36 138.648 132.528 139.394 131.888C140.141 131.227 140.994 130.747 141.954 130.448C142.914 130.128 143.896 129.968 144.898 129.968C146.029 129.968 147.053 130.139 147.97 130.48C148.909 130.821 149.709 131.291 150.37 131.888C151.053 132.485 151.576 133.2 151.938 134.032C152.322 134.864 152.514 135.771 152.514 136.752C152.514 137.477 152.312 138.032 151.906 138.416C151.501 138.8 150.936 139.045 150.21 139.152L142.306 140.336C142.541 141.04 143.021 141.573 143.746 141.936C144.472 142.277 145.304 142.448 146.242 142.448C147.117 142.448 147.938 142.341 148.706 142.128C149.496 141.893 150.136 141.627 150.626 141.328C150.968 141.541 151.256 141.84 151.49 142.224C151.725 142.608 151.842 143.013 151.842 143.44C151.842 144.4 151.394 145.115 150.498 145.584C149.816 145.947 149.048 146.192 148.194 146.32C147.341 146.448 146.541 146.512 145.794 146.512ZM144.898 133.936C144.386 133.936 143.938 134.021 143.554 134.192C143.192 134.363 142.893 134.587 142.658 134.864C142.424 135.12 142.242 135.419 142.114 135.76C142.008 136.08 141.944 136.411 141.922 136.752L147.394 135.856C147.33 135.429 147.096 135.003 146.69 134.576C146.285 134.149 145.688 133.936 144.898 133.936ZM160.573 145.968C160.359 146.032 160.018 146.096 159.549 146.16C159.101 146.224 158.631 146.256 158.141 146.256C157.671 146.256 157.245 146.224 156.861 146.16C156.498 146.096 156.189 145.968 155.933 145.776C155.677 145.584 155.474 145.328 155.325 145.008C155.197 144.667 155.133 144.229 155.133 143.696V134.096C155.133 133.605 155.218 133.189 155.389 132.848C155.581 132.485 155.847 132.165 156.189 131.888C156.53 131.611 156.946 131.365 157.437 131.152C157.949 130.917 158.493 130.715 159.069 130.544C159.645 130.373 160.242 130.245 160.861 130.16C161.479 130.053 162.098 130 162.717 130C163.741 130 164.551 130.203 165.149 130.608C165.746 130.992 166.045 131.632 166.045 132.528C166.045 132.827 166.002 133.125 165.917 133.424C165.831 133.701 165.725 133.957 165.597 134.192C165.149 134.192 164.69 134.213 164.221 134.256C163.751 134.299 163.293 134.363 162.845 134.448C162.397 134.533 161.97 134.629 161.565 134.736C161.181 134.821 160.85 134.928 160.573 135.056V145.968ZM174.476 142.544C174.839 142.544 175.234 142.512 175.66 142.448C176.108 142.363 176.439 142.256 176.652 142.128V139.568L174.348 139.76C173.751 139.803 173.26 139.931 172.876 140.144C172.492 140.357 172.3 140.677 172.3 141.104C172.3 141.531 172.46 141.883 172.78 142.16C173.122 142.416 173.687 142.544 174.476 142.544ZM174.22 129.968C175.372 129.968 176.418 130.085 177.356 130.32C178.316 130.555 179.127 130.917 179.788 131.408C180.471 131.877 180.994 132.485 181.356 133.232C181.719 133.957 181.9 134.821 181.9 135.824V142.992C181.9 143.547 181.74 144.005 181.42 144.368C181.122 144.709 180.759 145.008 180.332 145.264C178.946 146.096 176.994 146.512 174.476 146.512C173.346 146.512 172.322 146.405 171.404 146.192C170.508 145.979 169.73 145.659 169.068 145.232C168.428 144.805 167.927 144.261 167.564 143.6C167.223 142.939 167.052 142.171 167.052 141.296C167.052 139.824 167.49 138.693 168.364 137.904C169.239 137.115 170.594 136.624 172.428 136.432L176.62 135.984V135.76C176.62 135.141 176.343 134.704 175.788 134.448C175.255 134.171 174.476 134.032 173.452 134.032C172.642 134.032 171.852 134.117 171.084 134.288C170.316 134.459 169.623 134.672 169.004 134.928C168.727 134.736 168.492 134.448 168.3 134.064C168.108 133.659 168.012 133.243 168.012 132.816C168.012 132.261 168.14 131.824 168.396 131.504C168.674 131.163 169.09 130.875 169.644 130.64C170.263 130.405 170.988 130.235 171.82 130.128C172.674 130.021 173.474 129.968 174.22 129.968ZM190.667 140.656C190.667 141.211 190.837 141.605 191.179 141.84C191.541 142.075 192.043 142.192 192.683 142.192C193.003 142.192 193.333 142.171 193.675 142.128C194.016 142.064 194.315 141.989 194.571 141.904C194.763 142.139 194.923 142.405 195.051 142.704C195.2 142.981 195.275 143.323 195.275 143.728C195.275 144.539 194.965 145.2 194.347 145.712C193.749 146.224 192.683 146.48 191.147 146.48C189.269 146.48 187.819 146.053 186.795 145.2C185.792 144.347 185.291 142.96 185.291 141.04V127.344C185.525 127.28 185.856 127.216 186.283 127.152C186.731 127.067 187.2 127.024 187.691 127.024C188.629 127.024 189.355 127.195 189.867 127.536C190.4 127.856 190.667 128.549 190.667 129.616V131.664H194.859C194.987 131.899 195.104 132.197 195.211 132.56C195.339 132.901 195.403 133.285 195.403 133.712C195.403 134.459 195.232 135.003 194.891 135.344C194.571 135.664 194.133 135.824 193.579 135.824H190.667V140.656ZM197.911 126.128C197.911 125.317 198.178 124.635 198.711 124.08C199.266 123.525 199.991 123.248 200.887 123.248C201.783 123.248 202.498 123.525 203.031 124.08C203.586 124.635 203.863 125.317 203.863 126.128C203.863 126.939 203.586 127.621 203.031 128.176C202.498 128.731 201.783 129.008 200.887 129.008C199.991 129.008 199.266 128.731 198.711 128.176C198.178 127.621 197.911 126.939 197.911 126.128ZM203.607 145.968C203.372 146.011 203.02 146.064 202.551 146.128C202.103 146.213 201.644 146.256 201.175 146.256C200.706 146.256 200.279 146.224 199.895 146.16C199.532 146.096 199.223 145.968 198.967 145.776C198.711 145.584 198.508 145.328 198.359 145.008C198.231 144.667 198.167 144.229 198.167 143.696V130.672C198.402 130.629 198.743 130.576 199.191 130.512C199.66 130.427 200.13 130.384 200.599 130.384C201.068 130.384 201.484 130.416 201.847 130.48C202.231 130.544 202.551 130.672 202.807 130.864C203.063 131.056 203.255 131.323 203.383 131.664C203.532 131.984 203.607 132.411 203.607 132.944V145.968ZM223.166 138.224C223.166 139.547 222.964 140.731 222.558 141.776C222.153 142.8 221.577 143.664 220.83 144.368C220.105 145.072 219.23 145.605 218.206 145.968C217.182 146.331 216.041 146.512 214.782 146.512C213.524 146.512 212.382 146.32 211.358 145.936C210.334 145.552 209.449 145.008 208.702 144.304C207.977 143.579 207.412 142.704 207.006 141.68C206.601 140.656 206.398 139.504 206.398 138.224C206.398 136.965 206.601 135.824 207.006 134.8C207.412 133.776 207.977 132.912 208.702 132.208C209.449 131.483 210.334 130.928 211.358 130.544C212.382 130.16 213.524 129.968 214.782 129.968C216.041 129.968 217.182 130.171 218.206 130.576C219.23 130.96 220.105 131.515 220.83 132.24C221.577 132.944 222.153 133.808 222.558 134.832C222.964 135.856 223.166 136.987 223.166 138.224ZM211.966 138.224C211.966 139.525 212.212 140.528 212.702 141.232C213.214 141.915 213.918 142.256 214.814 142.256C215.71 142.256 216.393 141.904 216.862 141.2C217.353 140.496 217.598 139.504 217.598 138.224C217.598 136.944 217.353 135.963 216.862 135.28C216.372 134.576 215.678 134.224 214.782 134.224C213.886 134.224 213.193 134.576 212.702 135.28C212.212 135.963 211.966 136.944 211.966 138.224ZM235.676 136.144C235.676 135.483 235.484 135.003 235.1 134.704C234.738 134.384 234.236 134.224 233.596 134.224C233.17 134.224 232.743 134.277 232.316 134.384C231.911 134.491 231.559 134.651 231.26 134.864V145.968C231.047 146.032 230.706 146.096 230.236 146.16C229.788 146.224 229.319 146.256 228.828 146.256C228.359 146.256 227.932 146.224 227.548 146.16C227.186 146.096 226.876 145.968 226.62 145.776C226.364 145.584 226.162 145.328 226.012 145.008C225.884 144.667 225.82 144.229 225.82 143.696V134.096C225.82 133.52 225.938 133.051 226.172 132.688C226.428 132.325 226.77 131.995 227.196 131.696C227.922 131.184 228.828 130.768 229.916 130.448C231.026 130.128 232.252 129.968 233.596 129.968C236.007 129.968 237.863 130.501 239.164 131.568C240.466 132.613 241.116 134.075 241.116 135.952V145.968C240.903 146.032 240.562 146.096 240.092 146.16C239.644 146.224 239.175 146.256 238.684 146.256C238.215 146.256 237.788 146.224 237.404 146.16C237.042 146.096 236.732 145.968 236.476 145.776C236.22 145.584 236.018 145.328 235.868 145.008C235.74 144.667 235.676 144.229 235.676 143.696V136.144ZM257.597 141.36C257.597 142.981 256.989 144.251 255.773 145.168C254.557 146.085 252.765 146.544 250.397 146.544C249.501 146.544 248.669 146.48 247.901 146.352C247.133 146.224 246.471 146.032 245.917 145.776C245.383 145.499 244.957 145.157 244.637 144.752C244.338 144.347 244.189 143.867 244.189 143.312C244.189 142.8 244.295 142.373 244.509 142.032C244.722 141.669 244.978 141.371 245.277 141.136C245.895 141.477 246.599 141.787 247.389 142.064C248.199 142.32 249.127 142.448 250.173 142.448C250.834 142.448 251.335 142.352 251.677 142.16C252.039 141.968 252.22 141.712 252.22 141.392C252.22 141.093 252.093 140.859 251.837 140.688C251.581 140.517 251.154 140.379 250.557 140.272L249.597 140.08C247.741 139.717 246.354 139.152 245.437 138.384C244.541 137.595 244.093 136.475 244.093 135.024C244.093 134.235 244.263 133.52 244.605 132.88C244.946 132.24 245.426 131.707 246.045 131.28C246.663 130.853 247.399 130.523 248.253 130.288C249.127 130.053 250.087 129.936 251.133 129.936C251.922 129.936 252.658 130 253.341 130.128C254.045 130.235 254.653 130.405 255.165 130.64C255.677 130.875 256.082 131.184 256.381 131.568C256.679 131.931 256.829 132.368 256.829 132.88C256.829 133.371 256.733 133.797 256.541 134.16C256.37 134.501 256.146 134.789 255.869 135.024C255.698 134.917 255.442 134.811 255.101 134.704C254.759 134.576 254.386 134.469 253.981 134.384C253.575 134.277 253.159 134.192 252.733 134.128C252.327 134.064 251.954 134.032 251.613 134.032C250.909 134.032 250.365 134.117 249.981 134.288C249.597 134.437 249.405 134.683 249.405 135.024C249.405 135.259 249.511 135.451 249.725 135.6C249.938 135.749 250.343 135.888 250.941 136.016L251.933 136.24C253.981 136.709 255.431 137.36 256.285 138.192C257.159 139.003 257.597 140.059 257.597 141.36Z" fill="#6A4C93"/>
</svg>
