<svg width="375" height="365" viewBox="0 0 375 365" fill="none" xmlns="http://www.w3.org/2000/svg">
<g clip-path="url(#clip0_172_1191)">
<path d="M321.96 337.897C333.347 337.339 344.632 334.895 355.571 330.618C368.922 325.303 383.199 317.399 390.547 300.035C395.138 289.061 395.744 276.053 396.372 263.67C396.955 251.654 397.081 239.558 397.398 227.528L399.156 156.969C400.374 109.964 401.088 62.9662 401.951 15.8617C402.235 0.473543 390.751 -16.7908 379.035 -14.8041C286.401 0.918547 192.789 4.08606 99.5438 -5.34703C86.7599 -6.63503 73.9897 -8.16105 61.2332 -9.92511C54.6651 -10.822 48.0875 -11.7941 41.5005 -12.8415C33.2164 -14.1385 31.1393 -14.4409 24.1442 -15.7554C12.4237 -17.8584 -0.724024 -11.5189 -3.43795 6.40836C-4.02446 10.6136 -4.03852 14.9391 -3.47937 19.1654C-15.6253 84.2963 21.3147 161.899 74.1007 153.663C86.6009 151.753 98.48 146.927 110.539 142.325C115.886 140.174 121.313 138.41 126.798 137.04C126.484 137.183 130.962 136.496 131.846 136.432C133.362 136.411 134.879 136.39 136.395 136.37C136.989 136.362 138.661 136.617 138.926 136.614C140.194 136.91 141.363 137.294 142.569 137.73C143.014 137.898 145.036 138.793 145.225 138.791C146.921 139.864 148.482 141.252 150.116 142.448L150.806 142.961C151.729 143.958 152.603 145.025 153.453 146.127C154.302 147.229 154.984 148.143 155.719 149.212C155.964 149.574 157.218 151.593 157.838 152.559C158.458 153.525 159.564 155.859 159.472 155.652C160.084 156.914 160.682 158.176 161.268 159.456C162.454 162.068 163.551 164.646 164.613 167.433C166.901 173.272 168.949 179.281 170.748 185.432C179.402 214.899 187.712 242.266 202.858 266.633C216.953 288.978 234.468 306.75 254.125 318.65C275.575 331.689 298.517 339.156 321.96 337.897Z" fill="#FFCA3A"/>
<g filter="url(#filter0_d_172_1191)">
<path d="M66.8773 120.74C64.1301 119.732 61.1363 119.611 58.3167 120.393C55.497 121.175 52.9933 122.821 51.1573 125.1C50.4673 114.78 47.1573 102.61 35.2873 101.1C33.1021 100.819 30.8815 101.135 28.8618 102.016C26.8422 102.896 25.0989 104.307 23.8173 106.1C21.4435 109.44 20.2475 113.475 20.4173 117.57C18.9452 114.175 16.6408 111.207 13.7173 108.94C9.30731 105.74 3.56731 105.03 -1.03269 108.24C-10.7227 115 -9.74269 130.67 -1.56269 138.11C-1.48025 138.195 -1.37335 138.252 -1.25686 138.273C-1.14037 138.295 -1.02007 138.28 -0.912694 138.23C-0.891918 138.334 -0.83575 138.427 -0.753728 138.495C-0.671706 138.562 -0.568877 138.599 -0.462689 138.6C11.7573 139.23 24.0973 138.7 36.3273 138.6C48.5573 138.5 60.9473 138.94 73.1073 138.04C73.2646 138.022 73.4154 137.967 73.5473 137.88C73.6734 137.956 73.8159 138.002 73.963 138.012C74.1102 138.023 74.2577 137.998 74.3935 137.941C74.5293 137.883 74.6495 137.794 74.744 137.681C74.8386 137.568 74.9048 137.433 74.9373 137.29C76.5173 130.68 73.3373 123.32 66.8773 120.74ZM36.3273 136.63C24.0973 136.83 11.7373 136.63 -0.462689 137.63H-0.552693C-0.562562 137.49 -0.614928 137.358 -0.702695 137.25C-6.89269 129.81 -9.26269 117.41 -0.89269 110.41C3.74731 106.53 9.79731 107.72 13.9873 111.68C17.6673 115.16 19.4673 120.16 21.1173 124.82C21.1902 125.085 21.3655 125.31 21.6047 125.446C21.8438 125.582 22.1271 125.617 22.3923 125.545C22.6575 125.472 22.8829 125.296 23.0189 125.057C23.1548 124.818 23.1902 124.535 23.1173 124.27C22.2373 118.91 21.8573 112.97 24.9273 108.18C26.3307 105.905 28.5416 104.244 31.1172 103.53C33.6929 102.816 36.4432 103.102 38.8173 104.33C47.9573 108.68 49.0073 119.64 49.1373 128.57C49.1373 129.57 50.6773 130.13 51.1373 129.12C53.6173 123.94 59.5373 120.65 65.2573 122.36C70.9773 124.07 74.2573 130.48 73.0873 136.23C60.9573 135.63 48.5173 136.43 36.3273 136.63Z" fill="white"/>
</g>
<g filter="url(#filter1_d_172_1191)">
<path d="M406.51 302.327C402.42 301.225 397.891 301.682 393.706 301.976C388.917 302.179 384.167 302.93 379.549 304.215C379.349 304.277 379.179 304.413 379.075 304.596L377.571 303.461C373.741 300.461 369.836 297.546 365.848 294.771C358.595 289.728 350.969 284.097 342.819 280.622C342.727 280.573 342.621 280.558 342.519 280.579C342.418 280.599 342.326 280.654 342.26 280.735C342.145 280.745 342.033 280.78 341.932 280.836C341.83 280.891 341.741 280.968 341.671 281.06C341.6 281.151 341.55 281.257 341.522 281.369C341.494 281.482 341.49 281.599 341.509 281.713L341.547 281.899C333.398 292.497 326.832 304.223 322.055 316.709C321.951 316.633 321.829 316.584 321.701 316.567C321.572 316.55 321.442 316.566 321.321 316.613C312.859 319.669 304.514 323.355 296.148 326.688C296.038 326.735 295.95 326.822 295.902 326.932L295.229 326.935C295.057 326.924 294.886 326.964 294.737 327.05C294.588 327.136 294.467 327.263 294.39 327.417C294.312 327.57 294.281 327.743 294.301 327.914C294.321 328.085 294.39 328.246 294.5 328.378C303.658 339.872 314.828 351.53 327.653 358.957C327.742 359.012 327.842 359.042 327.946 359.047C328.05 359.052 328.153 359.03 328.245 358.983C328.338 358.937 328.418 358.868 328.476 358.782C328.535 358.697 328.571 358.598 328.58 358.495C328.628 358.497 328.675 358.487 328.717 358.467C342.281 356.143 355.675 352.919 368.81 348.815C375.246 346.79 381.648 344.946 388.229 343.483C390.358 343.06 392.464 342.529 394.539 341.892C395.411 341.614 396.285 341.294 397.147 340.967L398.709 340.417C398.893 340.403 399.067 340.332 399.209 340.214C399.305 340.25 399.409 340.258 399.509 340.238C399.61 340.217 399.703 340.169 399.777 340.099L399.93 339.946C400.011 339.869 400.072 339.772 400.106 339.666C400.14 339.559 400.146 339.445 400.124 339.335C400.101 339.226 400.052 339.123 399.979 339.038C399.906 338.953 399.813 338.887 399.708 338.848C399.617 338.82 399.524 338.797 399.429 338.782C402.949 327.153 405.319 315.206 406.505 303.114C406.51 302.986 406.484 302.858 406.43 302.741C406.469 302.726 406.504 302.701 406.53 302.668C406.557 302.636 406.575 302.597 406.583 302.556C406.591 302.515 406.589 302.472 406.576 302.432C406.563 302.392 406.54 302.356 406.51 302.327ZM393.135 303.693C396.625 303.345 400.238 303.503 403.742 303.172C398.21 306.392 392.634 309.528 387.014 312.582C387.14 312.452 387.213 312.28 387.218 312.1C387.223 311.919 387.16 311.743 387.042 311.607C385.071 309.35 382.835 307.339 380.384 305.617C384.644 305.042 388.845 304.122 393.135 303.693ZM343.289 282.241C350.165 287.289 357.794 291.42 364.703 296.38C368.274 298.902 371.748 301.506 375.176 304.18C378.603 306.854 382.127 310.458 386.077 312.69C386.233 312.782 386.417 312.813 386.595 312.779C375.101 319.005 363.417 324.869 351.545 330.369C348.65 314.376 346.004 298.301 343.289 282.241ZM323.89 317.155C325.656 312.713 327.667 308.373 329.914 304.154C333.605 297.175 338.101 290.645 341.819 283.701C344.479 299.64 347.238 315.569 349.682 331.552C340.063 329.996 330.402 328.734 320.71 327.928C320.689 327.76 320.607 327.606 320.48 327.495L320.871 326.1C321.342 325.046 321.557 323.737 321.924 322.622C322.52 320.778 323.183 318.96 323.89 317.155ZM321.482 318.264C320.354 321.419 319.362 324.589 318.543 327.754C312.15 327.27 305.729 326.996 299.296 326.97C306.942 324.753 314.369 321.839 321.482 318.264ZM370.091 346.771C356.379 351.113 342.573 354.688 328.628 357.924C328.591 357.929 328.556 357.943 328.525 357.963C328.494 357.984 328.468 358.01 328.448 358.042C328.423 358.006 328.392 357.974 328.357 357.948C322.349 353.102 316.149 348.672 310.513 343.353C305.686 338.789 301.169 333.907 296.992 328.742C304.393 328.715 311.764 329.042 319.113 329.618C319.22 329.677 319.338 329.713 319.46 329.722C319.581 329.731 319.704 329.713 319.817 329.669C343.771 331.634 367.428 336.372 391.003 341.26C383.935 342.933 376.993 344.58 370.061 346.777L370.091 346.771ZM398.323 338.557C398.329 338.63 398.344 338.702 398.366 338.772C396.737 339.055 395.154 339.557 393.659 340.264C393.61 340.164 393.538 340.078 393.448 340.012C393.358 339.947 393.254 339.904 393.144 339.889C379.785 337.089 366.361 334.323 352.878 332.069C370.575 323.876 387.84 314.779 404.604 304.814C403.187 316.177 401.089 327.445 398.323 338.557Z" fill="white"/>
</g>
<path d="M72.034 -68.8989L72.7093 -68.1439C73.5611 -71.2233 74.9813 -74.1163 76.8966 -76.6737C78.7973 -79.4369 80.7274 -82.1672 82.3535 -85.0392L82.3844 -84.476C92.0864 -97.9375 100.693 -110.774 111.594 -123.358C111.397 -123.182 111.628 -122.857 111.519 -122.582C111.723 -123.478 112.121 -124.319 112.686 -125.043C112.883 -125.219 112.844 -124.536 112.706 -124.294C116.249 -125.749 119.206 -132.352 121.644 -132.995C122.219 -133.805 122.045 -134.594 121.295 -134.574C130.468 -144.135 140.474 -153.557 149.742 -163.144C149.857 -163.206 149.984 -163.24 150.114 -163.244C150.245 -163.247 150.374 -163.221 150.492 -163.166C150.61 -163.111 150.714 -163.029 150.794 -162.927C150.875 -162.824 150.931 -162.705 150.958 -162.577C157.874 -171.953 167.761 -178.668 176.89 -185.768C176.781 -186.616 175.508 -185.595 175.921 -186.851C172.459 -185.173 171.678 -181.225 168.306 -180.041L168.226 -180.856C166.036 -179.606 168.886 -179.26 166.369 -178.309C165.232 -178.06 166.008 -179.108 165.782 -178.965C161.564 -175.831 157.791 -172.139 154.566 -167.99C152.711 -168.28 150.217 -164.396 147.866 -164.184C147.201 -162.881 146.095 -162.069 146.318 -161.027C132.02 -149.004 118.598 -135.975 106.156 -122.04C102.319 -113.646 92.8023 -107.971 87.0655 -99.0598C87.0115 -99.0718 86.9627 -99.1005 86.9258 -99.1417C86.8889 -99.1829 86.8659 -99.2347 86.86 -99.2896C85.9747 -97.4874 84.9607 -95.7513 83.8257 -94.0948C82.6889 -92.2454 81.4335 -90.4716 80.0675 -88.7845L79.0614 -85.2854C63.5271 -65.5328 52.8655 -42.3977 47.9412 -17.7557C44.8027 -4.07999 44.713 10.1189 47.6783 23.8332C49.2917 30.5944 51.9622 37.0586 55.5911 42.9871C59.3465 48.937 64.0691 54.218 69.5641 58.6121C69.3672 58.7882 69.3826 59.0697 68.8473 58.6032C74.3099 64.0822 80.4205 68.8744 87.0437 72.8734L86.7812 73.1082C95.4823 77.2753 104.451 80.8597 113.627 83.8379C122.578 86.8079 131.986 88.1568 141.411 87.8212C164.505 89.0333 187.632 86.1864 209.743 79.4098L209.836 79.9764C218.598 77.2219 227.376 75.2792 236.187 73.3072L249.79 70.4176C254.183 69.3841 258.531 68.0363 262.796 67.058C267.139 66.3922 271.581 66.9095 275.655 68.5554C279.818 70.5662 283.362 73.6621 285.914 77.5173C291.134 85.6514 293.947 95.0955 294.03 104.76C292.72 116.507 298.616 131.556 298.342 142.612C298.542 148.418 300.036 154.106 302.715 159.261C305.603 164.413 309.809 168.705 314.901 171.698C319.924 174.608 325.583 176.241 331.383 176.454C337.028 176.579 342.659 175.864 348.093 174.331C358.36 173.128 368.253 169.757 377.119 164.443C386.097 159.486 394.641 153.913 403.804 149.559C410.493 142.572 421.511 139.632 429.541 132.096L428.776 131.835C433.07 130.89 433.236 124.006 436.949 124.526L436.621 124.819C439.195 124.526 437.35 119.028 439.669 119.376L439.371 118.579C440.971 116.735 440.188 119.03 441.746 117.932C442.271 117.463 440.971 116.735 442.322 115.999C444.796 118.04 446.016 111.278 448.692 113.611C447.675 114.521 451.126 113.029 449.602 115.751C450.464 115.394 453.197 112.24 451.74 111.535C450.654 110.321 450.87 108.118 448.262 109.033L448.788 110.216C447.332 110.042 447.911 110.292 447.061 109.871C444.632 112.043 443.211 111.246 441.056 112.405C440.938 114.519 438.795 115.491 437.758 116.181L436.953 116.074C435.482 115.618 436.173 120.553 435.277 118.164C430.473 123.415 425.247 128.265 419.654 132.667C419.424 133.995 415.25 136.132 417.54 136.447C414.298 136.806 411.232 138.11 408.724 140.197C408.724 140.197 408.489 139.934 408.909 139.677C404.279 139.917 406.531 144.285 401.75 143.893C402.535 146.026 395.9 146.997 395.595 150.223C394.948 150.094 394.559 149.791 394.489 149.382C388.992 152.88 382.239 155.965 377.455 158.411C374.183 162.283 367.063 162.447 364.325 166.255C359.946 166.777 355.647 167.825 351.519 169.376L351.946 168.994C347.108 170.19 340.82 171.087 337.372 172.516C335.92 170.034 333.884 170.201 331.91 169.248C327.085 169.328 322.311 168.249 317.989 166.101C317.934 164.851 314.45 164.126 315.316 162.584C312.073 160.914 309.26 158.515 307.1 155.576C304.846 152.237 303.205 148.523 302.254 144.608C300.489 136.328 300.079 127.816 301.041 119.404L301.217 119.601C300.114 117.574 297.905 115.237 296.528 113.102C296.692 112.955 296.856 112.808 296.851 113.463C296.333 110.44 297.717 107.43 297.138 104.403C297.138 104.403 297.138 104.403 297.637 104.961C296.513 102.185 298.324 98.7934 296.321 95.5629L296.682 95.24L295.707 93.1585C296.241 93.0947 297.118 93.0189 297.144 94.2366C296.572 90.798 295.718 87.4124 294.59 84.1142C293.548 80.6262 292.011 77.3056 290.026 74.2538C288.011 70.9768 285.426 68.0865 282.394 65.7191C279.177 63.2549 275.375 61.6674 271.361 61.1115C264.134 60.8561 256.934 62.1224 250.227 64.8283C243.848 66.8112 237.439 68.7614 230.898 70.2987L231.718 69.5649L227.648 72.0822C227.472 71.8852 227.8 71.5916 228.03 71.3861C221.435 72.2032 215.265 75.4765 209.029 76.563C208.853 76.3661 209.805 75.5148 208.843 75.4299C204.612 78.0318 201.056 75.2449 199.454 78.8043C199.367 78.7458 199.294 78.6697 199.238 78.581C199.182 78.4922 199.146 78.3927 199.131 78.289C199.116 78.1853 199.123 78.0797 199.152 77.979C199.181 77.8782 199.23 77.7845 199.297 77.704C186.634 81.5342 173.49 83.5414 160.261 83.6651C149.348 86.9856 137.201 83.9062 125.735 83.7029L125.891 83.1502C110.853 82.1237 96.3621 74.1108 83.9176 65.7442C79.2563 62.4723 74.8603 58.8379 70.7707 54.8746L71.2959 54.4049C66.7349 51.0687 63.233 46.4877 61.2103 41.2112C59.2298 35.891 56.8603 30.7241 54.1206 25.7521L55.3104 26.224C53.1965 24.9833 54.1531 19.5789 51.7468 20.7857C51.8471 20.1052 51.9181 19.3919 52.0807 18.7148C50.0751 15.4535 49.2961 11.5846 49.883 7.80127C50.5118 3.69312 50.5559 -0.483305 50.014 -4.60383L50.601 -3.94738C50.1314 -6.35682 50.2596 -8.84464 50.9744 -11.1931C51.1505 -10.9961 51.1798 -10.9633 51.3058 -10.4261C54.586 -17.7903 53.8351 -26.6893 56.4626 -34.6513L57.4314 -33.568C57.2615 -37.7878 60.9906 -44.2538 62.5188 -49.2832L62.9298 -48.8236L63.3018 -51.5784L64.3087 -51.1792C66.775 -56.8111 68.7127 -63.034 72.034 -68.8989Z" fill="#FFBB00"/>
</g>
<defs>
<filter id="filter0_d_172_1191" x="-12" y="101" width="91.3379" height="45.9033" filterUnits="userSpaceOnUse" color-interpolation-filters="sRGB">
<feFlood flood-opacity="0" result="BackgroundImageFix"/>
<feColorMatrix in="SourceAlpha" type="matrix" values="0 0 0 0 0 0 0 0 0 0 0 0 0 0 0 0 0 0 127 0" result="hardAlpha"/>
<feOffset dy="4"/>
<feGaussianBlur stdDeviation="2"/>
<feComposite in2="hardAlpha" operator="out"/>
<feColorMatrix type="matrix" values="0 0 0 0 0 0 0 0 0 0 0 0 0 0 0 0 0 0 0.24 0"/>
<feBlend mode="normal" in2="BackgroundImageFix" result="effect1_dropShadow_172_1191"/>
<feBlend mode="normal" in="SourceGraphic" in2="effect1_dropShadow_172_1191" result="shape"/>
</filter>
<filter id="filter1_d_172_1191" x="290.295" y="280.57" width="120.293" height="86.478" filterUnits="userSpaceOnUse" color-interpolation-filters="sRGB">
<feFlood flood-opacity="0" result="BackgroundImageFix"/>
<feColorMatrix in="SourceAlpha" type="matrix" values="0 0 0 0 0 0 0 0 0 0 0 0 0 0 0 0 0 0 127 0" result="hardAlpha"/>
<feOffset dy="4"/>
<feGaussianBlur stdDeviation="2"/>
<feComposite in2="hardAlpha" operator="out"/>
<feColorMatrix type="matrix" values="0 0 0 0 0 0 0 0 0 0 0 0 0 0 0 0 0 0 0.24 0"/>
<feBlend mode="normal" in2="BackgroundImageFix" result="effect1_dropShadow_172_1191"/>
<feBlend mode="normal" in="SourceGraphic" in2="effect1_dropShadow_172_1191" result="shape"/>
</filter>
<clipPath id="clip0_172_1191">
<rect width="461.322" height="557.376" fill="white" transform="translate(-8 -193)"/>
</clipPath>
</defs>
</svg>
