<svg width="213" height="110" viewBox="0 0 213 110" fill="none" xmlns="http://www.w3.org/2000/svg">
<g clip-path="url(#clip0_172_1193)">
<path d="M208 54.6295C208 66.868 198.22 79.22 179.525 88.8096C161.094 98.2639 135.283 104.259 106.5 104.259C77.7168 104.259 51.9063 98.2639 33.4752 88.8096C14.7802 79.22 5 66.868 5 54.6295C5 42.391 14.7802 30.0391 33.4752 20.4495C51.9063 10.9952 77.7168 5 106.5 5C135.283 5 161.094 10.9952 179.525 20.4495C198.22 30.0391 208 42.391 208 54.6295Z" stroke="#E7E7E7" stroke-width="10"/>
<path d="M175.995 51.3189C175.995 57.7448 170.016 65.205 156.465 71.3469C143.371 77.2819 124.93 81.0832 104.293 81.0832C83.6562 81.0832 65.215 77.2819 52.1204 71.3469C38.5693 65.205 32.5908 57.7448 32.5908 51.3189C32.5908 44.8931 38.5693 37.4328 52.1204 31.291C65.215 25.356 83.6562 21.5547 104.293 21.5547C124.93 21.5547 143.371 25.356 156.465 31.291C170.016 37.4328 175.995 44.8931 175.995 51.3189Z" stroke="#E7E7E7" stroke-width="10"/>
<mask id="path-3-inside-1_172_1193" fill="white">
<ellipse cx="104.845" cy="51.319" rx="35.3161" ry="16.0026"/>
</mask>
<path d="M118.161 51.319C118.161 46.5159 120.4 43.5043 121.304 42.536C122.094 41.6891 122.226 41.9211 120.738 42.5958C117.803 43.9254 112.205 45.3216 104.845 45.3216V89.3216C116.99 89.3216 129.05 87.1355 138.898 82.6733C146.735 79.1221 162.161 69.7067 162.161 51.319H118.161ZM104.845 45.3216C97.4858 45.3216 91.8875 43.9254 88.9532 42.5958C87.4642 41.9211 87.5964 41.6891 88.387 42.536C89.2908 43.5043 91.5293 46.5159 91.5293 51.319H47.5293C47.5293 69.7067 62.9559 79.1221 70.7931 82.6733C80.6407 87.1355 92.7004 89.3216 104.845 89.3216V45.3216ZM91.5293 51.319C91.5293 56.1221 89.2908 59.1337 88.387 60.102C87.5964 60.9489 87.4642 60.7169 88.9532 60.0422C91.8875 58.7126 97.4858 57.3164 104.845 57.3164V13.3164C92.7004 13.3164 80.6407 15.5025 70.7931 19.9647C62.9559 23.5159 47.5293 32.9313 47.5293 51.319H91.5293ZM104.845 57.3164C112.205 57.3164 117.803 58.7126 120.738 60.0422C122.226 60.7169 122.094 60.9489 121.304 60.102C120.4 59.1337 118.161 56.1221 118.161 51.319H162.161C162.161 32.9313 146.735 23.5159 138.898 19.9647C129.05 15.5025 116.99 13.3164 104.845 13.3164V57.3164Z" fill="#E7E7E7" mask="url(#path-3-inside-1_172_1193)"/>
</g>
<defs>
<clipPath id="clip0_172_1193">
<rect width="213" height="109.259" fill="white"/>
</clipPath>
</defs>
</svg>
